<svg xmlns="http://www.w3.org/2000/svg" viewBox="0 0 800 600" id="belgium-provinces">
  <!-- Each path id matches the key in the data JSON -->
  <!-- In Inkscape: select a region > Object Properties > set the ID field -->

  <!-- West Flanders -->
  <path id="BE-VWV" d="M 50,120 L 180,100 L 210,150 L 190,220 L 100,240 L 50,200 Z" />

  <!-- East Flanders -->
  <path id="BE-VOV" d="M 180,100 L 300,90 L 320,160 L 210,150 Z" />

  <!-- Antwerp -->
  <path id="BE-VAN" d="M 300,90 L 420,85 L 440,170 L 320,160 Z" />

  <!-- Limburg (Flemish) -->
  <path id="BE-VLI" d="M 420,85 L 540,95 L 550,180 L 440,170 Z" />

  <!-- Flemish Brabant -->
  <path id="BE-VBR" d="M 320,160 L 440,170 L 430,260 L 310,250 Z" />

  <!-- Brussels -->
  <path id="BE-BRU" d="M 310,250 L 340,250 L 340,280 L 310,280 Z" />

  <!-- Walloon Brabant -->
  <path id="BE-WBR" d="M 340,250 L 430,260 L 420,320 L 340,310 Z" />

  <!-- Hainaut -->
  <path id="BE-WHT" d="M 100,240 L 310,250 L 310,280 L 340,310 L 320,400 L 120,390 Z" />

  <!-- Namur -->
  <path id="BE-WNA" d="M 340,310 L 420,320 L 430,410 L 320,400 Z" />

  <!-- Liège -->
  <path id="BE-WLG" d="M 430,260 L 550,180 L 580,300 L 500,400 L 430,410 L 420,320 Z" />

  <!-- Luxembourg (Belgian) -->
  <path id="BE-WLX" d="M 320,400 L 430,410 L 500,400 L 490,520 L 300,510 Z" />
</svg>
