<?xml version="1.0" encoding="UTF-8" standalone="no"?>
<svg
   width="296.926mm"
   viewBox="0 0 3507 2480"
   height="209.973mm"
   version="1.2"
   id="svg35"
   sodipodi:docname="castellisam.svg"
   inkscape:version="1.4.4 (dcaf3e7d9e, 2026-05-05)"
   xmlns:inkscape="http://www.inkscape.org/namespaces/inkscape"
   xmlns:sodipodi="http://sodipodi.sourceforge.net/DTD/sodipodi-0.dtd"
   xmlns="http://www.w3.org/2000/svg"
   xmlns:svg="http://www.w3.org/2000/svg"
   xmlns:rdf="http://www.w3.org/1999/02/22-rdf-syntax-ns#"
   xmlns:cc="http://creativecommons.org/ns#"
   xmlns:dc="http://purl.org/dc/elements/1.1/">
  <sodipodi:namedview
     id="namedview35"
     pagecolor="#ffffff"
     bordercolor="#999999"
     borderopacity="1"
     inkscape:showpageshadow="2"
     inkscape:pageopacity="0"
     inkscape:pagecheckerboard="0"
     inkscape:deskcolor="#d1d1d1"
     inkscape:document-units="mm"
     inkscape:zoom="1.0156266"
     inkscape:cx="560.73759"
     inkscape:cy="396.79938"
     inkscape:window-width="1920"
     inkscape:window-height="1008"
     inkscape:window-x="0"
     inkscape:window-y="0"
     inkscape:window-maximized="1"
     inkscape:current-layer="svg35" />
  <defs
     id="defs1" />
  <rect
     width="3507.1265"
     x="0"
     height="2479.3826"
     y="0"
     id="rect14"
     style="font-style:normal;font-weight:400;font-size:41.6667px;font-family:Ubuntu;fill:#000000;fill-opacity:0;fill-rule:evenodd;stroke:none;stroke-width:0.999751;stroke-linecap:square;stroke-linejoin:bevel" />
  <path
     vector-effect="none"
     d="m 1365.15,1009.4386 15.3662,1.4996 7.0482,3.2192 15.3662,7.0283 11.0372,18.2854 13.5367,39.4502 -1.3197,9.7376 -8.5779,9.9875 -3.6391,8.3179 1.9895,12.117 12.5369,13.5466 -12.2069,3.5591 h -9.5777 l -42.5794,11.1672 -26.0735,5.9486 -33.6016,-8.268 -3.879,-0.3399 -14.8463,-2.7893 -14.5264,-2.5594 -20.215,-2.0195 -9.4376,-4.039 -8.7678,-1.9495 10.6773,11.4872 6.8483,7.3681 8.9778,12.7069 11.867,4.1289 9.5676,10.9173 6.0185,31.9821 0.6199,7.4481 2.7793,10.6873 -0.8198,9.3277 0.8198,11.0073 10.9672,16.3059 -59.985,38.9403 -57.4357,25.9036 -11.2172,9.2776 -26.4034,12.117 -11.2272,5.4687 -21.7846,14.4964 -7.918,1.8995 -6.6084,-1.8995 -7.918,-0.4699 -10.2375,3.3291 -15.5061,7.3682 -14.8563,2.3694 -9.2377,-1.4196 -16.5059,11.1672 -19.1452,13.3167 -11.51017,2.9392 -6.76931,-7.938 -3.91203,-12.5868 -16.16397,-22.9843 -10.66835,-9.7776 -3.17421,-3.1892 0.26594,-3.0892 4.20195,-6.7483 4.20195,-7.9181 -4.52487,-9.3076 -20.36493,-17.9256 -41.53465,-21.7046 -6.20546,-4.8888 -7.49713,-3.819 -10.05949,-2.5894 -6.64735,-4.3189 -12.54787,-12.9068 -7.56212,-5.3986 -3.82105,-8.4279 -5.89053,-26.1935 -2.55436,-11.3472 1.76156,-9.3577 2.27343,-8.1579 2.59735,-30.2425 -0.23294,-1.0597 -16.74583,-27.5232 0.59585,-10.4274 2.64934,-5.8885 -0.86778,-2.6293 -3.65609,-11.4872 -8.72883,-17.4057 -3.29018,-7.4681 0.45589,-11.6171 0.13797,-9.6376 1.87353,-5.0687 3.10723,-7.6281 4.47888,-5.9186 6.07849,-7.1382 1.82254,-2.6293 1.37066,-0.8298 7.29818,13.5966 5.58461,6.4984 4.90378,2.6793 12.20696,1.5496 10.55637,4.009 15.85505,8.5179 13.79657,3.879 21.53063,1.6396 14.82331,6.2985 7.69808,4.9487 3.84505,2.1395 3.1962,0.2999 9.21871,-2.1295 4.10097,-1.4596 3.65909,-2.4294 5.52463,0.7998 8.4309,0.02 3.73407,1.1797 2.11247,-0.2599 3.10323,-4.289 1.69957,-3.4891 2.39741,-2.4094 3.42115,-0.8098 3.53115,0.18 3.849,2.5094 2.7893,1.1597 3.7291,0.3599 3.5391,-1.2697 1.7296,-0.4199 5.0087,5.2287 6.3384,-7.3782 10.5474,-13.0467 20.4449,-22.1745 12.3769,-13.5466 5.0388,-7.8581 5.0087,-8.088 1.7796,-3.69103 3.4091,-7.2292 3.8791,1.09772 1.7695,-0.002 3.9191,-0.003 3.0992,0.045 8.2879,0.11897 11.1672,1.19171 5.0188,0.53686 21.5446,2.21545 1.9495,-0.59485 14.0865,0.72782 12.6469,0.70982 18.8753,0.71482 15.5861,1.38566 18.9453,1.88653 27.853,2.39942 2.4894,-0.09 19.6751,1.3397 5.7886,0.3699 6.1784,0.2799 35.0813,2.4594 20.7348,1.6196 5.1088,0.1699 2.9192,0.09 12.6669,0.9198"
     fill-rule="evenodd"
     id="Acquaviva"
     style="font-style:normal;font-weight:400;font-size:41.6667px;font-family:Ubuntu;fill:#edae26;fill-opacity:1;stroke:#232323;stroke-width:3.07011;stroke-linecap:square;stroke-linejoin:bevel;stroke-opacity:1" />
  <path
     vector-effect="none"
     d="m 1286.7395,1209.9287 -6.0185,-31.9821 -9.5676,-10.9173 -11.867,-4.1289 -8.9778,-12.7069 -6.8483,-7.3681 -10.6773,-11.4872 8.7678,1.9495 9.4376,4.039 20.215,2.0195 14.5264,2.5594 14.8463,2.7893 3.879,0.3399 33.6016,8.268 26.0735,-5.9486 42.5794,-11.1672 h 9.5777 l 12.2069,-3.5591 -12.5369,-13.5466 -1.9895,-12.117 3.6391,-8.3179 8.5779,-9.9875 1.3197,-9.7376 -13.5367,-39.4502 -11.0372,-18.2854 -15.3662,-7.0283 -7.0482,-3.2192 -15.3662,-1.4996 7.7381,-9.2877 9.9875,-13.37567 3.4591,-4.65984 8.5079,-7.69808 6.0585,-5.32667 7.6181,-5.99051 10.6573,-6.95727 7.0483,-4.15696 17.8355,-6.74632 5.2587,-4.29593 7.2182,-6.87529 7.978,-7.33617 10.2775,-11.07225 6.3384,-6.17946 16.6159,-16.52288 11.6171,-11.96902 11.5971,-11.79406 10.6273,-10.8463 1.7996,0.032 15.886,-2.56836 8.018,-1.54162 5.4487,-1.10072 10.7773,-2.23345 8.208,-6.77931 66.8533,16.65385 14.0265,3.76607 2.9393,-0.066 9.6276,-0.96176 15.5961,-2.11547 10.3374,2.18945 15.2662,-0.3919 13.6266,-2.27643 15.6861,-11.88704 7.5581,-6.05749 18.1555,-13.61461 12.4169,-6.72932 13.2967,-5.30668 6.7783,-1.6256 20.6549,13.36967 -0.6599,18.53139 -7.4281,16.15397 -37.3207,30.35044 26.7533,28.5419 -19.4751,21.2647 -4.4489,6.96426 19.805,9.14773 21.6247,16.037 10.8073,16.94378 -21.1148,9.05173 -10.7373,10.7573 -18.6653,39.1503 -9.5777,22.3444 2.3395,17.8056 -1.8696,13.4466 -6.9982,15.1263 -16.336,19.995 -19.1452,18.3154 -2.7993,7.5581 2.6293,23.9941 0.3999,3.739 5.6086,3.8591 7.4682,2.6893 6.5284,0.5099 24.044,-2.3594 23.804,-2.1795 17.9756,5.8785 26.8433,10.5874 -2.0995,14.2865 -6.8883,23.1042 28.243,-12.2669 4.3189,22.1044 2.5894,17.1858 -4.4589,16.8758 25.2537,4.3889 22.6144,9.1577 15.836,11.0472 25.5836,6.0685 28.053,4.6289 10.7574,0.8498 27.5731,2.1794 35.6411,21.4447 15.7961,14.2764 11.1972,-0.3399 14.9363,-8.5679 35.8411,-14.2264 -6.4284,44.6489 -18.2055,18.4854 -11.4772,15.5261 -6.6483,15.5361 -5.2687,7.5681 -9.1277,7.9581 -9.9875,14.5363 -5.3087,2.9093 -2.5494,3.969 3.3992,6.4284 2.1195,7.0383 13.3766,11.6971 -6.8983,2.1894 -7.858,1.2597 -4.2189,0.3899 -4.5389,1.9895 -1.3097,3.979 -1.0797,4.5089 0.8098,4.8888 -0.5399,4.1189 -7.6181,15.3762 -0.6798,3.3292 -1.2197,3.819 -3.5391,1.9596 -7.0683,2.7393 -3.3991,2.7393 -16.316,10.5774 -0.6798,2.9392 -1.2197,1.9595 -5.9785,1.1697 -8.158,0.9798 -2.9992,1.6696 -3.7991,-0.5899 -2.9992,1.0798 -3.3992,0.09 -7.0682,3.0393 -4.079,0.7798 -3.939,0.1 -2.9493,0.8497 -3.849,1.1098 -9.7876,3.0392 -6.1185,2.5394 -2.1794,3.1392 -12.5069,5.3887 -10.0575,12.1369 -4.4889,3.0393 -5.7086,0.8798 -9.2477,0.8797 -7.0682,2.2495 -6.3884,4.8988 -4.8988,0.3199 -19.5151,2.9492 -22.1145,4.279 -34.1615,7.768 -17.8056,4.149 -28.7128,-0.1899 -43.1093,18.0655 -35.951,5.0487 -24.264,-1.0097 2.4294,-7.8981 7.0982,-23.0043 14.8563,-17.8355 27.7231,-24.244 -13.0667,-66.2035 1.1697,-39.1702 -9.5676,-38.8304 -26.8433,-34.4514 -14.4764,-20.8448 -15.6361,-17.6456 -30.8024,-27.2232 -12.1369,-9.0777 -26.9333,-7.7081 -74.9314,-22.3345 -33.8216,-3.799 -19.805,-2.1295 -17.6556,-2.2594 -11.0573,-6.7783 -5.4486,-9.1478 -7.0882,-11.1972 -18.4854,-17.1057 -19.4752,-18.0655 -8.5879,-7.6081 -29.7026,-12.8268 -20.3949,-0.6499 -9.2277,-2.4493"
     fill-rule="evenodd"
     id="BorgoMaggiore"
     style="font-style:normal;font-weight:400;font-size:41.6667px;font-family:Ubuntu;fill:#edae26;fill-opacity:1;stroke:#232323;stroke-width:3.07011;stroke-linecap:square;stroke-linejoin:bevel;stroke-opacity:1" />
  <path
     vector-effect="none"
     d="m 1006.5693,1436.2423 75.8811,-4.9788 21.9445,4.8688 27.7731,13.7866 21.2347,3.869 30.1125,11.0873 0.9298,17.8155 22.4144,15.976 6.2984,0.8398 17.7356,-9.9175 8.8678,-3.0292 0.9398,22.5243 2.0995,14.1265 32.9018,-8.2379 3.739,4.1989 0.4699,9.9176 -2.5693,28.4129 -0.6999,6.7183 -19.3751,2.3594 -27.7731,-4.5388 -23.8041,6.0484 -2.7393,2.6394 5.5186,2.4994 4.8988,7.5381 8.8778,23.0742 1.8495,8.6779 0.7998,6.7783 -4.6388,2.2894 -5.6886,-0.6698 -3.0492,0.5698 -1.4597,2.5794 -0.2599,6.2884 -5.1687,5.9186 -1.4497,5.4286 2.7793,4.7688 2.7793,10.9773 3.9691,5.6186 37.8705,19.3652 2.3794,6.9582 20.395,11.3572 2.5093,4.099 0.27,7.1482 2.6693,8.6079 0.8998,2.9392 6.8883,10.9673 12.5768,3.5291 1.7196,4.8588 7.8181,4.009 4.7688,2.9593 2.1094,5.1487 26.8833,17.4556 18.1355,16.6959 8.208,8.9678 15.3662,19.835 8.6078,12.7868 1.9795,6.9583 -24.3939,36.181 -10.9473,12.9568 -18.5354,9.4476 -5.3386,7.0782 -8.9178,4.7189 -17.1257,7.4881 -19.6651,4.3789 -13.6966,-1.3097 -10.7774,-5.0087 -11.5971,-8.7178 -11.3771,-9.0978 -8.4779,-1.3097 -7.1982,1.7496 -9.7476,-1.0497 -6.6383,-0.7298 -15.2962,6.6183 -7.3182,1.6796 -16.156,4.019 -1.1797,0.6498 -6.8783,6.5984 -1.7895,3.5591 -6.0585,12.037 -5.7086,4.7988 -7.988,1.9695 -10.5274,1.3897 -11.857,2.0195 -13.4067,3.1692 -11.5071,3.849 -24.8039,2.9693 -24.6738,2.6093 -11.6971,0.4599 -3.2192,0.4899 -4.7188,0.6298 -10.8673,1.2497 -0.5499,-0.6698 -9.3077,-0.07 -6.63931,-0.9498 -3.54312,-0.9997 -7.08523,-1.1997 -6.80931,-0.5099 -7.89803,-0.9397 -12.98476,-1.3697 -13.87955,-2.0095 -6.29543,-1.0397 -7.17221,-6.3885 -4.4459,-5.5086 -4.27593,-2.9992 -4.88279,-2.3794 -4.73981,-1.9496 -13.53563,-4.1789 0.67183,-17.0058 9.47964,-15.1762 11.6391,-18.9953 9.17771,-15.1662 11.58012,-17.6956 12.47589,-17.4356 6.91228,-19.5652 -11.28719,-28.9328 -11.6241,-31.2722 -21.51564,-57.8856 -6.94228,-19.1552 -8.14197,-24.8638 -11.34717,-24.254 -1.05674,-10.7373 1.02075,-6.0085 2.36041,-5.6686 4.45289,-11.2572 4.32792,-13.5966 1.96751,-6.1285 2.64834,-9.8075 2.66334,-5.5086 6.80131,-6.6584 9.6226,-6.7283 8.72083,-7.3582 9.14172,-5.6186 9.6186,-8.4579 8.22995,-8.8078 8.92478,-6.3784 10.78732,-5.1787 8.46589,-6.5384 9.40266,-7.4181 5.67861,-11.5971 1.6995,-6.8883 3.4392,-5.2687 -4.059,-16.8358"
     fill-rule="evenodd"
     id="Chiesanouva"
     style="font-style:normal;font-weight:400;font-size:41.6667px;font-family:Ubuntu;fill:#edae26;fill-opacity:1;stroke:#232323;stroke-width:3.07011;stroke-linecap:square;stroke-linejoin:bevel;stroke-opacity:1" />
  <path
     vector-effect="none"
     d="m 2021.9764,1332.918 -27.5731,-2.1794 -10.7574,-0.8498 -28.053,-4.6289 -25.5836,-6.0685 -15.836,-11.0472 -22.6144,-9.1577 -25.2537,-4.3889 4.4589,-16.8758 -2.5894,-17.1858 -4.3189,-22.1044 -28.243,12.2669 6.8883,-23.1042 2.0995,-14.2865 -26.8433,-10.5874 -17.9756,-5.8785 -23.804,2.1795 -24.044,2.3594 -6.5284,-0.5099 -7.4682,-2.6893 -5.6086,-3.8591 -0.3999,-3.739 -2.6293,-23.9941 2.7993,-7.5581 19.1452,-18.3154 16.336,-19.995 6.9982,-15.1263 1.8696,-13.4466 -2.3395,-17.8056 9.5777,-22.3444 18.6653,-39.1503 10.7373,-10.7573 21.1148,-9.05173 24.3339,-2.32642 46.4484,-0.26293 27.1033,-31.99403 15.0662,-10.13448 11.3272,-6.49138 9.6076,-2.15747 40.25,-6.24844 10.7773,1.48663 3.5791,-3.97401 5.2887,-12.15297 6.5384,-1.51263 12.3669,1.84754 0.9398,1.67958 6.0685,7.72808 13.7665,16.29694 11.2072,8.06299 12.8868,5.00476 6.2585,4.32492 10.5373,8.12198 8.7779,4.69183 13.1167,7.09123 7.2382,4.70483 13.2967,19.32418 7.5081,4.009 7.928,-1.4696 7.968,-2.8593 13.1468,-7.60212 7.888,-7.50513 6.8183,-6.4484 3.6091,-1.31567 8.228,0.032 14.6163,-8.93677 3.969,-3.17421 5.0388,-4.76381 4.1689,-1.76856 3.0793,-0.18096 5.2986,-0.22794 3.8391,-1.13272 3.969,-2.67633 5.6086,-4.038 7.938,-4.94476 2.6494,-1.81355 0.8198,-4.12797 -0.7099,-6.34542 2.5794,-5.45265 4.089,-2.98625 3.1592,-0.90678 14.6763,-4.26393 3.5292,-3.58411 2.6493,-3.26619 3.3392,-3.49113 5.0387,-1.63459 10.0275,-4.67084 2.3794,2.57736 3.0093,2.21045 2.1394,0.31692 3.2792,-0.4069 3.6491,-0.36391 3.8491,0.58986 3.779,1.5876 3.4092,0.58985 8.7878,-0.95176 9.5376,1.12272 6.8183,2.37341 3.4292,0.25594 4.8987,-1.89153 6.4584,-1.47564 6.6884,-2.53436 6.3284,-3.6231 7.1682,-0.32192 8.138,1.70057 14.4864,-6.25944 8.3379,-5.13572 6.6783,-2.72232 6.0685,-0.47388 8.4079,1.34366 3.969,3.35917 5.1287,2.01649 8.408,-1.84753 16.5658,-9.74458 14.0065,-8.06299 29.8726,-5.04074 15.1862,-3.70508 0.18,8.40391 5.6386,4.05199 10.8373,8.93577 12.2469,10.67834 1.2097,1.50463 -2.7393,2.45738 -1.5196,2.70533 -9.5276,15.59212 -8.218,13.88354 -4.199,6.60335 -6.6283,10.27844 -6.3784,10.71134 -5.9485,9.12272 -3.4192,6.18646 15.4562,18.36937 8.8578,9.6876 8.2279,9.2477 5.0588,5.4987 4.0889,4.5388 13.9965,12.4569 7.3682,6.8683 7.0083,6.3284 4.0989,4.7988 8.308,11.0673 6.9582,9.6676 -53.7166,40.2899 -35.7111,16.6359 -13.0667,13.6166 -24.274,41.3397 -13.8265,14.5364 -4.7289,-1.0197 -22.2144,-2.1395 -10.0475,-3.989 -10.4974,-6.4084 -14.6464,-9.1278 -9.6975,-4.2689 -16.356,-2.2494 -1.4596,-5.0188 0.5399,-6.4884 -10.6274,-1.9195 -15.6361,-5.1287 -6.3384,-0.7198 -6.9283,3.5691 -12.4969,1.4296 -7.0682,-3.4091 -6.5684,-0.9098 -6.6983,1.9195 -4.8988,-3.799 -4.7488,-0.7498 -3.2192,-0.4399 -5.9785,1.0697 -9.1977,1.4196 -6.0685,-1.1297 -3.9191,-3.3791 -7.2681,-2.2595 -8.5679,-0.1499 -6.9683,1.9595 -1.3596,3.6791 -5.1188,3.6291 -10.0275,3.709 -2.5993,-0.08 -3.7191,0.07 -2.3094,1.1398 -1.0498,0.7698 -0.1999,2.0794 0.3199,1.8996 -0.6698,1.1697 -2.1095,1.4096 -2.9093,1.1298 -4.2389,0.4298 -3.6391,-0.4498 -3.4491,-2.1995 -3.9691,-0.4799 -6.3584,0.9198 -5.5986,0.6698 -2.4194,1.1797 -3.839,4.199 -2.8893,0.7998 -4.4189,0.8598 -5.2387,1.4296 -4.089,1.5896 -2.1894,0.12 -5.6886,-0.5699 -5.4886,1.2497 -3.4692,2.4694 -1.7695,0.4499 -8.5079,-0.5799 -14.0465,10.1475 -8.088,9.0278 -4.3089,8.9477 -5.1388,22.1845 -26.3734,20.5049 -25.7036,13.5866 -3.2392,1.7096 -4.8988,36.9708 -39.5901,20.3349"
     fill-rule="evenodd"
     id="Domagnano"
     style="font-style:normal;font-weight:400;font-size:41.6667px;font-family:Ubuntu;fill:#edae26;fill-opacity:1;stroke:#232323;stroke-width:3.07011;stroke-linecap:square;stroke-linejoin:bevel;stroke-opacity:1" />
  <path
     vector-effect="none"
     d="m 1966.5402,1579.7365 2.9493,-0.8497 3.939,-0.1 4.079,-0.7798 7.0682,-3.0393 3.3992,-0.09 2.9992,-1.0798 3.7991,0.5899 2.9992,-1.6696 8.158,-0.9798 5.9785,-1.1697 1.2197,-1.9595 0.6798,-2.9392 16.316,-10.5774 3.3991,-2.7393 7.0683,-2.7393 3.5391,-1.9596 1.2197,-3.819 0.6798,-3.3292 7.6181,-15.3762 0.5399,-4.1189 -0.8098,-4.8888 1.0797,-4.5089 1.3097,-3.979 4.5389,-1.9895 4.2189,-0.3899 7.858,-1.2597 6.8983,-2.1894 -13.3766,-11.6971 -2.1195,-7.0383 -3.3992,-6.4284 2.5494,-3.969 5.3087,-2.9093 9.9875,-14.5363 9.1277,-7.9581 5.2687,-7.5681 6.6483,-15.5361 11.4772,-15.5261 18.2055,-18.4854 6.4284,-44.6489 -35.8411,14.2264 -14.9363,8.5679 -11.1972,0.3399 -15.7961,-14.2764 -35.6411,-21.4447 39.5901,-20.3349 4.8988,-36.9708 3.2392,-1.7096 25.7036,-13.5866 26.3734,-20.5049 5.1388,-22.1845 4.3089,-8.9477 8.088,-9.0278 14.0465,-10.1475 8.5079,0.5799 1.7695,-0.4499 3.4692,-2.4694 5.4886,-1.2497 5.6886,0.5699 2.1894,-0.12 4.089,-1.5896 5.2387,-1.4296 4.4189,-0.8598 2.8893,-0.7998 3.839,-4.199 2.4194,-1.1797 5.5986,-0.6698 6.3584,-0.9198 3.9691,0.4799 3.4491,2.1995 3.6391,0.4498 4.2389,-0.4298 2.9093,-1.1298 2.1095,-1.4096 0.6698,-1.1697 -0.3199,-1.8996 0.1999,-2.0794 1.0498,-0.7698 2.3094,-1.1398 3.7191,-0.07 2.5993,0.08 10.0275,-3.709 5.1188,-3.6291 1.3596,-3.6791 6.9683,-1.9595 8.5679,0.1499 7.2681,2.2595 3.9191,3.3791 6.0685,1.1297 9.1977,-1.4196 5.9785,-1.0697 3.2192,0.4399 4.7488,0.7498 4.8988,3.799 6.6983,-1.9195 6.5684,0.9098 7.0682,3.4091 12.4969,-1.4296 6.9283,-3.5691 6.3384,0.7198 15.6361,5.1287 10.6274,1.9195 -0.5399,6.4884 1.4596,5.0188 16.356,2.2494 9.6975,4.2689 14.6464,9.1278 10.4974,6.4084 10.0475,3.989 22.2144,2.1395 4.7289,1.0197 13.8265,-14.5364 24.274,-41.3397 13.0667,-13.6166 35.7111,-16.6359 53.7166,-40.2899 7.7081,8.9877 5.1487,7.0583 4.219,5.5486 5.5786,8.5579 2.4894,1.4896 3.789,3.849 3.0293,5.6486 5.2287,11.5572 2.5993,5.4986 1.1797,4.149 5.2887,15.2262 7.3182,18.8453 3.6891,10.4574 4.5788,14.3964 2.5294,7.2182 0.16,2.3494 6.0785,13.5166 -1.8696,0.7998 0.6599,11.6171 0.7198,8.9578 1.1897,14.6664 1.7995,11.2971 -8.0979,6.2385 -4.079,3.1592 -2.5094,4.169 -3.989,8.3379 -4.4389,3.809 -8.6479,4.039 -6.6583,6.2185 -9.0477,6.2084 0.5198,2.5394 -2.3394,2.3794 -5.9685,2.5894 -6.7883,2.5093 -4.069,2.8393 -8.6878,1.5896 -6.3185,1.4297 -13.2067,15.7661 0.7898,1.1297 -0.3799,7.0282 -2.7993,7.9181 -3.5091,8.7378 -1.5196,2.4494 -3.2392,1.3796 -6.7183,2.0695 -3.5892,0.9098 -6.0684,1.6496 -4.349,1.1097 -6.0584,1.7196 -6.6384,3.0492 -8.5879,7.7081 -0.4698,5.5986 2.2194,6.5684 1.5396,1.5596 0.5699,1.5496 -0.4099,4.8888 -4.129,4.8388 -7.0982,6.6083 -6.7883,6.2385 -8.9778,6.9082 -5.5986,8.198 -3.1092,2.4294 -6.3184,7.6881 -6.0285,7.748 -1.9995,8.338 -2.0595,4.4589 -1.4497,8.4579 -4.3689,10.3074 -0.5698,6.0385 1.6096,0.9098 1.8395,6.5583 -3.0392,8.7578 -2.9393,5.0888 -1.4297,6.1084 -2.8992,8.9178 -5.7786,14.2565 -1.8395,3.779 -3.7291,3.7191 -6.9483,2.7393 -14.7763,1.1697 -7.6781,2.8693 -7.3082,1.8796 -7.988,-0.31 -6.8383,0.4899 -7.0782,1.6596 -7.8681,2.9193 -5.1687,0.03 -13.3966,-0.3899 -7.6881,0.5798 -2.6494,1.7996 -3.3691,3.789 -3.1092,3.8091 -3.6091,2.4894 -1.8796,1.8595 -0.8997,4.4089 0.1899,3.6691 -2.0795,4.2789 -6.3084,4.3789 -6.9083,2.8793 -9.1277,5.5186 -13.2167,5.0988 -3.2992,5.4186 -4.5889,5.8386 -4.5088,6.9982 -1.9895,4.119 -2.3595,1.5496 -4.9987,5.2987 -2.0995,4.7188 -0.2599,2.3494 -2.3094,4.8488 -2.1995,4.169 -0.6098,4.5388 -0.5699,4.4089 -0.2299,5.5187 0.4598,5.9185 0.28,2.5194 2.6593,2.8193 2.2095,2.3994 1.7695,3.4091 1.8696,1.6496 7.1482,-0.13 0.4699,2.4194 -4.6289,1.0198 -56.8958,-1.6996 -62.0846,-7.2382 -4.6688,22.7044 -31.2822,-4.039 -3.0293,-22.1945 -43.6491,-10.2575 -7.2282,-9.5776 -14.0065,-21.6946 -18.6353,-3.6191 -5.8786,-20.5648 -2.9393,-11.2972 -4.019,-4.049 -2.8392,-1.0897 -6.6584,1.1597 -6.4684,1.4296 -2.3394,1.6796 -2.8293,3.3092 -4.3689,4.3389 -17.8656,-12.7768 -31.0522,-13.6666 -14.8363,-10.1275 -4.5389,-3.0293"
     fill-rule="evenodd"
     id="Faetano"
     style="font-style:normal;font-weight:400;font-size:41.6667px;font-family:Ubuntu;fill:#edae26;fill-opacity:1;stroke:#232323;stroke-width:3.07011;stroke-linecap:square;stroke-linejoin:bevel;stroke-opacity:1" />
  <path
     vector-effect="none"
     d="m 1658.6069,1660.4165 24.264,1.0097 35.951,-5.0487 43.1093,-18.0655 28.7128,0.1899 17.8056,-4.149 34.1615,-7.768 22.1145,-4.279 19.5151,-2.9492 4.8988,-0.3199 6.3884,-4.8988 7.0682,-2.2495 9.2477,-0.8797 5.7086,-0.8798 4.4889,-3.0393 10.0575,-12.1369 12.5069,-5.3887 2.1794,-3.1392 6.1185,-2.5394 9.7876,-3.0392 3.849,-1.1098 4.5389,3.0293 14.8363,10.1275 31.0522,13.6666 17.8656,12.7768 -3.2292,5.1787 -1.6196,4.9188 -2.1595,3.6291 v 3.4991 l -1.4396,4.009 -1.2597,3.4991 -0.1799,2.5894 2.1594,1.5596 2.5194,0.2599 3.0592,1.9395 0.7199,2.0695 -0.8998,3.2392 -1.6196,4.149 -0.5399,5.3087 -0.1799,3.4991 0.8997,5.6986 1.7996,7.898 v 6.0885 l 0.1799,4.4089 -0.3599,3.889 -0.5398,2.8493 v 2.7193 l -5.4887,4.9988 -6.8083,5.8485 -5.9185,1.9595 -14.1165,7.8481 -11.2672,8.048 -11.3471,5.2687 -12.097,9.6276 -4.129,25.7036 30.8623,7.2582 18.1555,-21.4047 14.8463,6.2984 19.8051,9.6376 6.1084,9.8676 -2.8093,15.2162 -9.7375,6.5384 -11.8771,5.4686 -5.6086,7.0182 -1.8195,14.6264 -7.5881,7.2482 -26.9033,9.3977 42.5794,55.6461 0.8198,15.936 -3.2992,7.6081 -8.7478,7.7281 -12.207,1.8995 -8.7478,0.4799 -9.9076,4.6389 -56.2759,43.0492 -1.6496,10.2275 -1.9096,18.3254 -4.7788,1.3597 -4.6988,1.8895 -3.5191,1.2597 -5.6186,-0.18 -14.0065,3.9591 -2.7893,-2.1995 -3.6891,-2.1495 -3.1892,-1.6096 -3.1592,-1.2996 -2.6394,1.4296 -2.8393,2.1795 -3.849,3.4191 -4.6589,2.9593 -5.3186,2.5493 -5.1188,2.0395 -9.0477,3.0393 -10.5274,2.5493 -7.2782,1.2097 -8.8878,2.1495 -6.2384,0.5599 -4.9988,5.2887 -2.8193,7.1482 -2.7193,5.5086 -3.879,5.7686 -4.4589,-1.4197 -8.8778,-3.3691 -8.5279,-4.029 -6.5883,-2.4594 -8.028,-1.8996 -8.298,0.9498 -12.3669,3.5491 -11.0972,4.3389 -4.6788,2.3495 -12.177,3.1792 -8.3879,-1.1597 -7.988,-1.6796 -8.208,-0.5499 -14.1665,-0.4299 -7.4181,-1.6496 -6.3884,-3.2192 -7.4082,-3.6191 -4.5089,-2.2494 -6.8483,-4.2789 -5.9685,-5.0788 -10.4974,-2.4394 -5.5686,-2.0495 -10.5173,-4.7688 -7.8981,-6.8783 -5.0487,-5.7385 -5.2287,-5.2087 -5.7086,-4.099 -7.3382,-10.2575 -0.8298,-3.719 4.039,-12.027 -5.9885,-4.7788 -10.5074,-5.9086 -8.8578,-5.6186 -2.8292,-5.2187 3.2391,-5.4886 8.4579,-5.4786 -5.8185,-4.099 0.5798,-6.3184 2.4394,-9.8076 -5.3286,-12.4569 -8.6179,-6.1485 -16.156,-9.4676 -10.9172,-5.0787 -17.9156,-4.239 -11.5271,-9.9275 -6.6983,-7.898 -14.2165,-16.7259 -45.4487,2.7793 -8.9977,3.949 -20.7749,12.8768 -10.4074,10.3275 6.9583,9.7175 -6.3184,4.5589 -11.4872,-3.5091 -4.3289,2.7393 -3.1792,5.3287 -7.0183,-1.2597 -5.2586,-6.4984 -19.3352,3.859 5.3386,-7.0782 18.5354,-9.4476 10.9473,-12.9568 24.3939,-36.181 -1.9795,-6.9583 -8.6078,-12.7868 -15.3662,-19.835 -8.208,-8.9678 -18.1355,-16.6959 -26.8833,-17.4556 -2.1094,-5.1487 -4.7688,-2.9593 -7.8181,-4.009 -1.7196,-4.8588 -12.5768,-3.5291 -6.8883,-10.9673 -0.8998,-2.9392 11.5871,-1.4897 63.1743,-9.8575 28.7128,2.8493 44.389,3.1592 10.7273,2.0295 18.6554,8.1979 h 11.2172 l 5.3186,-2.2394 71.9521,-24.254 23.4342,2.3795 37.6306,0.7198 16.3659,7.758 36.6409,-49.4376"
     fill-rule="evenodd"
     id="Fiorentino"
     style="font-style:normal;font-weight:400;font-size:41.6667px;font-family:Ubuntu;fill:#edae26;fill-opacity:1;stroke:#232323;stroke-width:3.07011;stroke-linecap:square;stroke-linejoin:bevel;stroke-opacity:1" />
  <path
     vector-effect="none"
     d="m 2034.8332,1619.3367 4.3689,-4.3389 2.8293,-3.3092 2.3394,-1.6796 6.4684,-1.4296 6.6584,-1.1597 2.8392,1.0897 4.019,4.049 2.9393,11.2972 5.8786,20.5648 18.6353,3.6191 14.0065,21.6946 7.2282,9.5776 43.6491,10.2575 3.0293,22.1945 31.2822,4.039 4.6688,-22.7044 62.0846,7.2382 56.8958,1.6996 4.6289,-1.0198 -1.1198,4.289 0.16,2.5893 1.2797,0.9698 -1.2297,5.7785 0.02,5.8786 0.7598,7.5681 0.8798,5.5386 -0.5399,8.208 -0.08,7.6881 -0.09,8.5978 0.6599,10.0575 -0.5699,6.2485 -1.6196,6.2084 -0.6798,8.128 6.9283,1.0497 12.6968,-0.2199 6.3684,1.6296 5.6786,1.9795 4.9688,4.3089 1.0697,4.7788 -2.1595,3.939 -5.0087,4.5189 -5.3087,3.3092 -7.7181,4.3689 -8.1679,4.8788 -6.9283,3.3392 -8.168,3.4691 -1.1197,4.6888 -0.3699,5.4287 -1.0797,5.0187 -0.8598,3.969 -2.3594,3.7791 -2.9593,3.2292 -2.7793,3.839 -0.6698,3.5192 -1.0198,4.9487 -1.9095,4.9288 -3.7391,5.0087 -3.819,4.6389 -7.9181,9.5676 -5.0487,4.2989 -4.4389,3.7091 -6.6583,5.0088 -4.3789,5.2187 -5.4587,4.9587 -1.7196,2.7393 -3.4391,7.8981 -4.3589,11.1072 -5.3587,10.5474 -4.1989,10.2074 -2.5694,7.4682 -3.0792,11.5271 -1.5596,7.1182 -2.6494,11.3872 -4.3889,10.8073 -3.4691,11.1772 -7.5281,0.26 -5.6386,0.1299 -6.0685,-0.6398 -8.3779,-0.4099 -12.077,-0.3699 -10.6774,-0.8698 -1.0597,-0.09 -8.3979,-0.8598 -8.9578,-0.2699 -10.5074,-0.6298 -11.7071,-0.4999 -10.4474,-0.6998 -9.8275,-0.5299 -10.4274,-0.09 -9.2177,-0.3599 -11.0473,-0.11 -11.5071,-0.3499 -9.0177,-1.0997 -12.7269,-0.09 -11.917,-0.4399 -13.9465,0.26 -10.6674,0.4299 -10.9572,1.8495 -8.7279,1.1697 -8.5079,0.8698 -7.4581,1.7396 -8.078,0.8897 -8.9178,1.6096 -6.7083,-1.1097 -4.8988,-1.9595 -4.8688,-1.5796 -5.6086,-0.3199 -6.4484,0.5598 1.9096,-18.3254 1.6496,-10.2275 56.2759,-43.0492 9.9076,-4.6389 8.7478,-0.4799 12.207,-1.8995 8.7478,-7.7281 3.2992,-7.6081 -0.8198,-15.936 -42.5794,-55.6461 26.9033,-9.3977 7.5881,-7.2482 1.8195,-14.6264 5.6086,-7.0182 11.8771,-5.4686 9.7375,-6.5384 2.8093,-15.2162 -6.1084,-9.8676 -19.8051,-9.6376 -14.8463,-6.2984 -18.1555,21.4047 -30.8623,-7.2582 4.129,-25.7036 12.097,-9.6276 11.3471,-5.2687 11.2672,-8.048 14.1165,-7.8481 5.9185,-1.9595 6.8083,-5.8485 5.4887,-4.9988 v -2.7193 l 0.5398,-2.8493 0.3599,-3.889 -0.1799,-4.4089 v -6.0885 l -1.7996,-7.898 -0.8997,-5.6986 0.1799,-3.4991 0.5399,-5.3087 1.6196,-4.149 0.8998,-3.2392 -0.7199,-2.0695 -3.0592,-1.9395 -2.5194,-0.2599 -2.1594,-1.5596 0.1799,-2.5894 1.2597,-3.4991 1.4396,-4.009 v -3.4991 l 2.1595,-3.6291 1.6196,-4.9188 3.2292,-5.1787"
     fill-rule="evenodd"
     id="Montegiardino"
     style="font-style:normal;font-weight:400;font-size:41.6667px;font-family:Ubuntu;fill:#edae26;fill-opacity:1;stroke:#232323;stroke-width:3.07011;stroke-linecap:square;stroke-linejoin:bevel;stroke-opacity:1" />
  <path
     vector-effect="none"
     d="m 993.60953,1409.5089 11.51017,-2.9392 19.1452,-13.3167 16.5059,-11.1672 9.2377,1.4196 14.8563,-2.3694 15.5061,-7.3682 10.2375,-3.3291 7.918,0.4699 6.6084,1.8995 7.918,-1.8995 21.7846,-14.4964 11.2272,-5.4687 26.4034,-12.117 11.2172,-9.2776 57.4357,-25.9036 59.985,-38.9403 -10.9672,-16.3059 -0.8198,-11.0073 0.8198,-9.3277 -2.7793,-10.6873 -0.6199,-7.4481 9.2277,2.4493 20.3949,0.6499 29.7026,12.8268 8.5879,7.6081 19.4752,18.0655 18.4854,17.1057 7.0882,11.1972 5.4486,9.1478 11.0573,6.7783 17.6556,2.2594 19.805,2.1295 33.8216,3.799 74.9314,22.3345 26.9333,7.7081 12.1369,9.0777 30.8024,27.2232 15.6361,17.6456 14.4764,20.8448 26.8433,34.4514 9.5676,38.8304 -1.1697,39.1702 13.0667,66.2035 -27.7231,24.244 -14.8563,17.8355 -7.0982,23.0043 -2.4294,7.8981 -36.6409,49.4376 -16.3659,-7.758 -37.6306,-0.7198 -23.4342,-2.3795 -71.9521,24.254 -5.3186,2.2394 h -11.2172 l -18.6554,-8.1979 -10.7273,-2.0295 -44.389,-3.1592 -28.7128,-2.8493 -63.1743,9.8575 -11.5871,1.4897 -2.6693,-8.6079 -0.27,-7.1482 -2.5093,-4.099 -20.395,-11.3572 -2.3794,-6.9582 -37.8705,-19.3652 -3.9691,-5.6186 -2.7793,-10.9773 -2.7793,-4.7688 1.4497,-5.4286 5.1687,-5.9186 0.2599,-6.2884 1.4597,-2.5794 3.0492,-0.5698 5.6886,0.6698 4.6388,-2.2894 -0.7998,-6.7783 -1.8495,-8.6779 -8.8778,-23.0742 -4.8988,-7.5381 -5.5186,-2.4994 2.7393,-2.6394 23.8041,-6.0484 27.7731,4.5388 19.3751,-2.3594 0.6999,-6.7183 2.5693,-28.4129 -0.4699,-9.9176 -3.739,-4.1989 -32.9018,8.2379 -2.0995,-14.1265 -0.9398,-22.5243 -8.8678,3.0292 -17.7356,9.9175 -6.2984,-0.8398 -22.4144,-15.976 -0.9298,-17.8155 -30.1125,-11.0873 -21.2347,-3.869 -27.7731,-13.7866 -21.9445,-4.8688 -75.8811,4.9788 -0.9698,-4.009 -1.7495,-10.7173 -10.24047,-12.0071"
     fill-rule="evenodd"
     id="SanMarino"
     style="font-style:normal;font-weight:400;font-size:41.6667px;font-family:Ubuntu;fill:#edae26;fill-opacity:1;stroke:#232323;stroke-width:3.07011;stroke-linecap:square;stroke-linejoin:bevel;stroke-opacity:1" />
  <path
     vector-effect="none"
     d="m 1834.2032,993.03867 -10.8073,-16.94378 -21.6247,-16.037 -19.805,-9.14773 4.4489,-6.96426 19.4751,-21.2647 -26.7533,-28.5419 37.3207,-30.35044 7.4281,-16.15397 0.6599,-18.53139 -20.6549,-13.36967 -6.7783,1.6256 -13.2967,5.30668 -12.4169,6.72932 -18.1555,13.61461 -7.5581,6.05749 -15.6861,11.88704 -13.6266,2.27643 -15.2662,0.3919 -10.3374,-2.18945 -15.5961,2.11547 -9.6276,0.96176 -2.9393,0.066 -14.0265,-3.76607 -66.8533,-16.65385 10.9472,-9.05474 16.136,-12.78782 6.4884,-5.18071 7.2682,-6.0055 12.2569,-9.62061 1.1797,-1.74656 4.319,-2.53737 5.6286,-2.65334 39.82,-20.075 11.4672,-5.83754 10.1275,-4.90478 6.9882,-3.84105 46.3485,-23.04626 24.024,-12.19496 20.8548,-10.93627 13.9265,-6.86529 7.0883,-2.72732 10.1174,-4.07299 15.7661,-5.17771 13.6866,-4.53387 7.7681,-3.07724 5.1287,-2.33641 9.4276,-4.28094 8.408,-4.21295 1.6895,-1.86453 -0.1499,-0.8328 0.8498,-2.98525 0.8997,-1.24669 2.4594,-1.59361 3.2792,-0.85878 1.9695,-0.4239 1.9095,-0.99375 0.09,-1.23169 3.7491,-3.39116 1.4196,-1.10572 1.7596,-0.46289 1.2197,-0.92377 2.5594,-1.07573 2.1594,-1.02074 1.5796,-0.4009 1.3597,0.009 1.4596,-0.11297 1.4697,-0.035 3.0492,-1.17471 1.9395,0.50288 2.0995,-1.27568 1.8495,-1.46464 1.4197,-0.13597 2.7593,-1.04074 0.4199,-1.06273 1.1597,-0.20495 0.9697,-0.83979 2.6394,-0.95876 1.3597,-0.93777 1.3696,-0.23694 1.8595,-0.95376 1.5797,-1.12072 0.4998,-0.57886 1.1897,-0.27993 1.4097,-0.93977 2.0595,-0.26193 2.9292,-0.62984 2.1995,-0.34892 1.6296,-0.3789 1.4596,-0.026 2.2895,0.018 1.7895,-0.11397 1.9795,0.25094 3.2092,-1.13072 1.1697,-1.74957 2.2195,-1.17071 1.7595,-0.70182 2.5994,-1.43364 1.9895,-0.68383 2.3394,-0.56286 1.9095,-0.064 0.9398,-1.31167 1.4196,-1.47563 4.019,-0.8338 3.1793,-1.05773 2.2894,-1.38966 1.4996,-0.85478 1.7196,-0.60985 6.0885,-0.75981 1.9795,-0.3909 0.7698,0.25893 1.6996,-1.71857 1.4096,-1.23169 0.8198,-0.60885 1.4996,-0.56286 1.2097,-0.83979 2.5794,0.02 0.7798,-0.3749 4.4889,0.94176 0.5598,-0.19995 1.9296,-0.21595 1.6295,0.12297 1.7796,-0.072 1.4296,-0.82479 2.7194,-1.40365 1.1597,-0.23894 0.8298,-0.66884 2.2494,-0.49987 3.1092,-1.25169 1.5297,-0.4129 3.0092,-0.61784 1.0897,-0.70583 1.5397,-0.50487 2.5293,-0.65284 1.1497,-0.69583 0.4799,-1.00975 3.0892,-0.93776 1.2897,-0.48488 1.1397,0.34591 2.3595,0.21195 2.5093,-1.57461 1.9295,-0.69482 1.1598,-1.16471 2.7593,-1.2197 1.9795,-0.33192 2.9193,-0.48588 1.9795,-0.64384 2.9292,-0.062 6.3684,0.4139 4.339,-0.70783 2.1294,-0.45089 4.6989,-1.36766 0.9597,0.13097 2.5894,-0.23994 8.2879,-0.18395 1.7696,-0.28793 2.5393,-0.57986 4.239,-0.41789 2.5294,0.087 1.9095,0.94076 2.3394,-0.81979 2.8993,0.21594 1.9995,0.34692 2.7293,-0.12997 0.8498,0.4139 1.6996,-0.017 4.5088,0.92677 1.3497,0.11897 1.2597,0.36691 1.7296,-0.15096 1.9895,-0.26094 2.0595,-0.13897 2.0694,-0.55986 2.7494,-0.94376 2.8192,-0.4079 3.6091,-1.56161 2.7694,-0.46888 3.4691,-0.16996 1.6996,0.27193 1.5396,-0.26993 1.1997,-0.98076 1.4296,-0.20295 2.7893,0.39091 7.3282,-1.58261 2.8093,-0.17896 0.9798,-0.62884 1.7695,-0.074 1.7596,-0.53587 1.2297,-0.55686 2.8893,-1.70957 3.679,-1.18271 0.8798,-0.67783 1.8996,-0.44389 1.1297,-1.42264 3.1492,-1.99651 2.4494,-0.75581 2.4094,-0.64184 2.4194,-1.05474 1.9295,-0.063 3.819,-0.69083 2.3695,-1.04774 1.6995,-0.58685 1.5496,-0.68983 1.8296,-0.73482 1.4596,-0.69382 1.2397,-0.64484 2.3594,-0.66184 3.0093,-1.00975 1.5396,-0.69882 1.5296,-0.32492 2.2195,-0.69683 1.2996,-1.38665 2.5994,-0.79081 1.4996,-0.8028 0.7398,-2.06148 3.5891,-0.76281 0.9098,-1.45664 2.8093,-1.51562 4.6189,-1.42965 1.9595,-1.62859 4.1489,-1.46564 5.0788,-0.34291 9.7775,0.93377 5.3587,1.6066 6.5984,2.85929 7.3881,0.15296 3.5891,0.48488 2.2495,-0.17496 4.7088,-4.60085 3.7091,-3.48414 3.4991,-2.59335 5.0687,-3.54012 2.2295,-2.54437 2.8193,-1.08373 2.6093,-1.5896 0.8598,-0.89578 1.9695,-1.85753 0.5799,-0.84479 1.0997,-2.4324 2.2994,-2.29543 1.5497,0.11897 1.4096,0.67684 1.9695,0.30492 1.1597,-0.60385 -1.0497,-1.52762 -0.6698,-3.39315 2.3094,-2.05149 2.7393,-1.03175 8.5879,-10.64534 10.2074,-10.38842 3.1092,0.38391 3.3492,1.03274 2.5094,0.51287 2.4494,0.50088 4.3289,0.14396 6.3184,0.012 3.1392,-0.06 5.5387,0.031 2.9792,0.20994 2.5894,0.11398 9.9175,6.83529 2.6393,-1.10272 2.4094,-3.33717 4.6989,-5.08873 5.7585,-4.17196 12.007,-5.40566 8.338,-1.14771 3.6491,0.43389 6.4484,1.58261 6.2884,1.53861 4.029,-1.87753 3.3591,-3.88303 1.5697,-6.0415 5.6685,-3.16421 5.8086,-5.12372 5.4686,-4.13597 -0.3099,-1.76357 -4.5988,-5.37066 -1.9895,-1.44964 -0.5299,-3.05324 2.2194,-1.1707 11.8671,-0.47189 3.5991,-2.10547 -1.0198,-4.71183 5.2387,-7.42815 3.3592,-5.31867 1.9495,-3.92503 -13.2967,-2.88628 -3.7191,-1.48863 2.5994,-4.55686 1.7496,-2.67534 10.7373,1.09773 6.4284,0.82879 4.9987,0.54787 8.6479,0.73881 0.9797,2.09348 1.7596,-0.83079 7.2882,-9.29269 3.6191,-3.996 7.0282,3.49813 7.4882,3.6071 9.3776,4.59086 4.4689,1.22369 4.239,-0.86178 0.9997,-3.35717 -1.6196,-2.29743 -2.2394,-1.37965 -4.3389,-1.04774 -1.0798,-2.14247 2.9593,-2.52037 4.019,-1.70957 5.3887,-2.67134 7.0982,-2.84829 6.6083,-0.31792 -0.2199,2.4134 -4.7188,4.07598 -0.4099,4.58386 1.8595,5.35067 2.8793,2.76231 10.1075,0.49688 9.1177,-1.74457 16.7458,-0.76881 16.5959,-1.38165 4.069,0.82279 7.4281,-2.17646 0.4399,-1.40864 14.2165,7.38516 2.2694,0.72282 0.9898,1.87153 4.8688,10.66234 5.1187,9.6436 -1.3597,10.80631 -0.6798,6.45039 -0.11,1.13172 2.5194,9.12273 4.3789,18.27945 2.6593,7.97001 0.18,0.87179 2.7693,13.04275 4.029,14.65935 -4.9688,-0.15596 -3.749,-0.54787 -10.0575,0.22295 -4.3389,0.66983 -2.1795,0.93877 -7.6281,0.13396 -3.7991,-0.05 -6.2384,1.24669 -3.3192,1.68858 -6.6383,3.69008 -3.8491,1.59761 -3.0192,0.75781 -2.8093,2.45839 -1.9495,3.29218 -0.2,6.36041 -3.3791,2.89828 -0.9298,2.23444 0.8098,2.72332 0.1,1.69158 -6.3085,2.99826 -1.8595,2.44539 -5.6786,6.8153 -1.8595,3.08323 0.08,1.27968 -7.2582,2.8133 -4.3489,1.42965 0.4099,1.47063 0.7098,1.70058 -0.8098,2.27843 -0.18,1.30667 -0.7798,1.2377 -2.7993,0.31792 -0.3199,0.50487 2.0595,3.38016 1.2697,1.80055 3.4291,1.86354 1.9795,2.51437 0.26,5.96052 1.1197,1.92052 -2.1795,7.41515 2.3094,5.6276 3.7791,9.42465 -0.2899,3.2132 4.6988,3.88903 3.4691,4.37791 1.2397,6.96927 0.02,1.55361 -1.5696,2.4214 -0.6798,7.68308 0.1799,5.2117 0.9398,1.98051 -0.5599,2.99226 2.1995,11.85604 0.6598,4.4489 3.2592,4.04599 2.6994,5.11172 2.3494,2.32343 4.4089,7.1922 0.2099,3.29019 2.7693,3.72207 -1.8595,3.66409 0.6798,3.57311 0.25,3.31417 -0.4899,3.07523 -1.8696,3.04525 -4.029,4.72682 -2.2394,2.4134 -1.6696,0.8118 -8.8778,0.50387 -8.028,0.69583 -4.3189,2.83129 -8.028,4.90378 -5.4486,1.5926 -9.1877,2.0335 -6.1485,-0.083 -7.6281,-0.54287 -10.5274,0.91378 -29.0128,5.00475 8.3679,18.65935 5.6686,13.70059 8.9478,17.05275 -0.16,1.6006 1.3697,25.37968 1.2997,18.79232 0.2599,11.93703 -15.1862,3.70508 -29.8726,5.04074 -14.0065,8.06299 -16.5658,9.74458 -8.408,1.84753 -5.1287,-2.01649 -3.969,-3.35917 -8.4079,-1.34366 -6.0685,0.47388 -6.6783,2.72232 -8.3379,5.13572 -14.4864,6.25944 -8.138,-1.70057 -7.1682,0.32192 -6.3284,3.6231 -6.6884,2.53436 -6.4584,1.47564 -4.8987,1.89153 -3.4292,-0.25594 -6.8183,-2.37341 -9.5376,-1.12272 -8.7878,0.95176 -3.4092,-0.58985 -3.779,-1.5876 -3.8491,-0.58986 -3.6491,0.36391 -3.2792,0.4069 -2.1394,-0.31692 -3.0093,-2.21045 -2.3794,-2.57736 -10.0275,4.67084 -5.0387,1.63459 -3.3392,3.49113 -2.6493,3.26619 -3.5292,3.58411 -14.6763,4.26393 -3.1592,0.90678 -4.089,2.98625 -2.5794,5.45265 0.7099,6.34542 -0.8198,4.12797 -2.6494,1.81355 -7.938,4.94476 -5.6086,4.038 -3.969,2.67633 -3.8391,1.13272 -5.2986,0.22794 -3.0793,0.18096 -4.1689,1.76856 -5.0388,4.76381 -3.969,3.17421 -14.6163,8.93677 -8.228,-0.032 -3.6091,1.31567 -6.8183,6.4484 -7.888,7.50513 -13.1468,7.60212 -7.968,2.8593 -7.928,1.4696 -7.5081,-4.009 -13.2967,-19.32418 -7.2382,-4.70483 -13.1167,-7.09123 -8.7779,-4.69183 -10.5373,-8.12198 -6.2585,-4.32492 -12.8868,-5.00476 -11.2072,-8.06299 -13.7665,-16.29694 -6.0685,-7.72808 -0.9398,-1.67958 -12.3669,-1.84754 -6.5384,1.51263 -5.2887,12.15297 -3.5791,3.97401 -10.7773,-1.48663 -40.25,6.24844 -9.6076,2.15747 -11.3272,6.49138 -15.0662,10.13448 -27.1033,31.99403 -46.4484,0.26293 -24.3339,2.32642"
     fill-rule="evenodd"
     id="Serravalle"
     style="font-style:normal;font-weight:400;font-size:41.6667px;font-family:Ubuntu;fill:#edae26;fill-opacity:1;stroke:#232323;stroke-width:3.07011;stroke-linecap:square;stroke-linejoin:bevel;stroke-opacity:1" />
  <metadata
     id="metadata35">
    <rdf:RDF>
      <rdf:Description
         dc:title=""
         dc:identifier=""
         dc:format="image/svg+xml"
         dc:date="2026-06-22T15:50:23"
         dc:description="">
        <dc:creator>
          <rdf:Bag>
            <rdf:li>Zangigga</rdf:li>
          </rdf:Bag>
        </dc:creator>
        <dc:publisher>
          <rdf:Bag>
            <rdf:li>QGIS 3.44.7-Solothurn</rdf:li>
          </rdf:Bag>
        </dc:publisher>
        <dc:subject>
          <rdf:Bag />
        </dc:subject>
      </rdf:Description>
      <cc:Work
         rdf:about="">
        <dc:format>image/svg+xml</dc:format>
        <dc:date>2026-06-22T15:50:23</dc:date>
        <dc:identifier />
        <dc:description />
        <dc:creator>
          <cc:Agent>
            <dc:title>Zangigga</dc:title>
          </cc:Agent>
        </dc:creator>
        <dc:publisher>
          <cc:Agent>
            <dc:title>QGIS 3.44.7-Solothurn</dc:title>
          </cc:Agent>
        </dc:publisher>
      </cc:Work>
    </rdf:RDF>
  </metadata>
</svg>
