<?xml version="1.0" encoding="UTF-8" standalone="no"?>
<svg
   width="296.926mm"
   viewBox="0 0 3507 2480"
   version="1.2"
   height="209.973mm"
   id="svg50"
   sodipodi:docname="parishesand.svg"
   inkscape:version="1.4.4 (dcaf3e7d9e, 2026-05-05)"
   xmlns:inkscape="http://www.inkscape.org/namespaces/inkscape"
   xmlns:sodipodi="http://sodipodi.sourceforge.net/DTD/sodipodi-0.dtd"
   xmlns="http://www.w3.org/2000/svg"
   xmlns:svg="http://www.w3.org/2000/svg"
   xmlns:rdf="http://www.w3.org/1999/02/22-rdf-syntax-ns#"
   xmlns:cc="http://creativecommons.org/ns#"
   xmlns:dc="http://purl.org/dc/elements/1.1/">
  <sodipodi:namedview
     id="namedview50"
     pagecolor="#ffffff"
     bordercolor="#999999"
     borderopacity="1"
     inkscape:showpageshadow="2"
     inkscape:pageopacity="0"
     inkscape:pagecheckerboard="0"
     inkscape:deskcolor="#d1d1d1"
     inkscape:document-units="mm"
     inkscape:zoom="0.35907822"
     inkscape:cx="12.532088"
     inkscape:cy="-19.49436"
     inkscape:window-width="1920"
     inkscape:window-height="1008"
     inkscape:window-x="0"
     inkscape:window-y="0"
     inkscape:window-maximized="1"
     inkscape:current-layer="svg50" />
  <defs
     id="defs1" />
  <rect
     y="0"
     width="3507.1265"
     x="0"
     height="2479.3826"
     id="rect14"
     style="font-style:normal;font-weight:400;font-size:41.6667px;font-family:Ubuntu;fill:#000000;fill-opacity:0;fill-rule:evenodd;stroke:none;stroke-width:0.999751;stroke-linecap:square;stroke-linejoin:bevel" />
  <path
     fill-rule="evenodd"
     vector-effect="none"
     d=""
     id="path18"
     style="font-style:normal;font-weight:400;font-size:41.6667px;font-family:Ubuntu;fill:#f0ba17;fill-opacity:1;stroke:#232323;stroke-width:3.07011;stroke-linecap:square;stroke-linejoin:bevel;stroke-opacity:1" />
  <path
     fill-rule="evenodd"
     vector-effect="none"
     d=""
     id="path19"
     style="font-style:normal;font-weight:400;font-size:41.6667px;font-family:Ubuntu;fill:#f0ba17;fill-opacity:1;stroke:#232323;stroke-width:3.07011;stroke-linecap:square;stroke-linejoin:bevel;stroke-opacity:1" />
  <path
     fill-rule="evenodd"
     vector-effect="none"
     d=""
     id="path20"
     style="font-style:normal;font-weight:400;font-size:41.6667px;font-family:Ubuntu;fill:#f0ba17;fill-opacity:1;stroke:#232323;stroke-width:3.07011;stroke-linecap:square;stroke-linejoin:bevel;stroke-opacity:1" />
  <path
     fill-rule="evenodd"
     vector-effect="none"
     d=""
     id="path21"
     style="font-style:normal;font-weight:400;font-size:41.6667px;font-family:Ubuntu;fill:#f0ba17;fill-opacity:1;stroke:#232323;stroke-width:3.07011;stroke-linecap:square;stroke-linejoin:bevel;stroke-opacity:1" />
  <path
     fill-rule="evenodd"
     vector-effect="none"
     d=""
     id="path22"
     style="font-style:normal;font-weight:400;font-size:41.6667px;font-family:Ubuntu;fill:#f0ba17;fill-opacity:1;stroke:#232323;stroke-width:3.07011;stroke-linecap:square;stroke-linejoin:bevel;stroke-opacity:1" />
  <path
     fill-rule="evenodd"
     vector-effect="none"
     d=""
     id="path23"
     style="font-style:normal;font-weight:400;font-size:41.6667px;font-family:Ubuntu;fill:#f0ba17;fill-opacity:1;stroke:#232323;stroke-width:3.07011;stroke-linecap:square;stroke-linejoin:bevel;stroke-opacity:1" />
  <path
     fill-rule="evenodd"
     vector-effect="none"
     d=""
     id="path24"
     style="font-style:normal;font-weight:400;font-size:41.6667px;font-family:Ubuntu;fill:#f0ba17;fill-opacity:1;stroke:#232323;stroke-width:3.07011;stroke-linecap:square;stroke-linejoin:bevel;stroke-opacity:1" />
  <path
     fill-rule="evenodd"
     vector-effect="none"
     d=""
     id="path25"
     style="font-style:normal;font-weight:400;font-size:41.6667px;font-family:Ubuntu;fill:#f0ba17;fill-opacity:1;stroke:#232323;stroke-width:3.07011;stroke-linecap:square;stroke-linejoin:bevel;stroke-opacity:1" />
  <path
     fill-rule="evenodd"
     vector-effect="none"
     d="m 1462.0159,1268.584 -27.9631,5.2487 -27.6031,-1.8695 -51.9271,-0.9398 -17.3056,2.3395 -17.3057,15.906 -24.5639,21.0647 -25.9536,4.6589 -16.8458,14.5164 -12.3969,27.2632 -15.2062,-9.0278 -25.9635,-0.4599 -31.5722,-0.9497 -29.7725,-9.5976 -6.4584,-5.5387 0.8498,-0.5098 -15.8661,-12.3969 -21.5346,-38.8904 -0.15,-0.2799 -7.5081,-4.4389 -16.9658,-10.0475 -5.4087,-17.1457 -1.7795,-5.6286 -1.4796,-7.1082 3.0392,-15.3862 -13.9465,-7.0083 -10.2975,-5.1787 -3.929,-1.9695 -1.8595,-0.9297 -5.7786,-2.9093 -15.5361,-4.099 -1.0198,-0.2699 -12.52283,6.2084 -18.64736,8.6879 -35.94605,8.5478 -36.27096,0.8198 20.20696,-29.8725 0.43889,-18.1055 27.96404,-37.2807 74.66241,-32.212 -0.5399,-21.6846 -5.8685,-1.8795 -5.8685,-1.8796 -34.36349,-11.0172 -23.33019,-30.3725 4.12997,-19.2552 28.99278,-0.5398 21.12173,-0.4099 0.5599,-0.6899 1.3696,-0.8198 2.3095,-1.3696 1.6995,-1.0098 22.1445,-14.53035 6.8783,-20.15798 -2.2194,-5.36166 40.3799,-7.6381 43.7791,-15.46315 6.6183,-4.15296 20.6849,17.22171 22.0345,9.04075 26.0135,0.52686 28.6729,6.90328 12.7368,15.39317 12.7468,16.71883 19.1153,27.5931 14.5963,24.9738 2.3894,35.5612 25.4837,13.8165 16.4559,16.4659 11.1572,19.6451 21.8946,19.9051 24.5539,5.8185 23.3641,4.5389 27.3432,1.5896 22.3045,-0.5599 21.2347,-0.5198 40.13,2.1294 -20.8948,15.2662 -15.906,16.3659 -12.6369,13.1068 -16.3659,14.0165 -4.7788,27.5031"
     id="Massana"
     style="font-style:normal;font-weight:400;font-size:41.6667px;font-family:Ubuntu;fill:#f0ba17;fill-opacity:1;stroke:#232323;stroke-width:3.07011;stroke-linecap:square;stroke-linejoin:bevel;stroke-opacity:1" />
  <path
     fill-rule="evenodd"
     vector-effect="none"
     d="m 1240.1511,1356.7721 -2.5793,26.5234 5.3886,18.9353 17.2257,8.5178 19.4952,8.088 22.7943,16.8458 22.1145,5.6186 20.225,-6.5783 13.9265,11.707 24.3239,-0.4498 24.6639,-2.2195 18.3654,6.4384 24.9138,7.7081 28.183,3.0392 23.6241,3.5791 -0.08,23.6342 -9.1177,17.5356 17.8456,15.3662 7.5681,19.7051 -0.9098,0.8197 -4.179,0.21 -8.3179,0.4199 -16.9158,19.3952 4.5189,9.5376 6.2984,13.2567 -13.7166,6.2984 -5.9385,2.7093 -7.2782,10.6074 -0.8698,20.9948 -0.8097,19.7151 -37.8506,1.8295 -28.9528,1.3997 -42.3795,2.0494 -29.8725,5.5187 -1.3697,1.0197 -1.4296,1.0698 -3.2692,2.4293 -18.6154,0.5899 -30.0625,-6.2584 -41.7896,-8.6879 h -0.07 l -20.035,-0.3599 h -0.07 l -20.8449,-0.6598 -6.3984,-1.3197 -27.1732,-6.6683 -11.5871,-0.26 -22.3244,-0.5098 -46.1785,-1.0398 -13.9066,-4.5089 -6.2484,-2.0195 -30.4524,-25.0837 1.2197,-2.5994 9.7875,2.1695 -0.06,-0.3999 -2.3194,-17.6056 -17.8755,-21.5946 17.9555,-22.8044 5.0387,-4.039 -29.8425,-17.2057 2.8992,-35.6011 0.3899,-4.7688 0.39,-4.7688 -11.6971,-9.6276 -18.75137,-15.4362 -0.59085,-0.4899 -43.05927,-6.2084 -14.84431,-2.1395 27.07526,-39.2902 5.29868,-0.5199 14.98527,-1.4696 50.87129,-4.9788 0.1,-0.01 87.6082,-52.7068 1.8495,-1.1198 14.7164,-8.8478 6.4584,5.5387 29.7725,9.5976 31.5722,0.9497 25.9635,0.4599 15.2062,9.0278"
     id="SJDL"
     style="font-style:normal;font-weight:400;font-size:41.6667px;font-family:Ubuntu;fill:#f0ba17;fill-opacity:1;stroke:#232323;stroke-width:3.07011;stroke-linecap:square;stroke-linejoin:bevel;stroke-opacity:1" />
  <path
     fill-rule="evenodd"
     vector-effect="none"
     d="m 1704.7654,879.07806 -2.5793,22.39242 -14.6064,12.19796 -21.6346,16.32693 -25.3437,8.81781 -27.8831,24.41692 -22.7443,5.48663 -7.6081,20.086 -14.7763,21.28567 -14.5264,20.135 -19.985,15.6461 -2.3794,17.2657 3.4391,24.294 13.5466,24.024 9.0178,23.6141 -5.8286,22.5644 -18.2754,24.6938 -40.13,-2.1294 -21.2347,0.5198 -22.3045,0.5599 -27.3432,-1.5896 -23.3641,-4.5389 -24.5539,-5.8185 -21.8946,-19.9051 -11.1572,-19.6451 -16.4559,-16.4659 -25.4837,-13.8165 -2.3894,-35.5612 -14.5963,-24.9738 -19.1153,-27.5931 -12.7468,-16.71883 -12.7368,-15.39317 -28.6729,-6.90328 -26.0135,-0.52686 -22.0345,-9.04075 -20.6849,-17.22171 34.0416,-21.38168 1.8495,-34.89331 -11.0772,-31.7171 6.9382,-30.32245 21.4847,-25.65861 3.2392,-19.69309 0.6498,-3.99701 15.7161,-19.61611 20.5849,5.56261 7.2382,1.95252 20.015,14.4284 5.9785,4.31193 21.3147,7.02625 49.9476,-2.54137 5.4286,-0.47988 47.5881,-4.21395 38.8704,-14.4414 43.0093,-13.06175 8.0579,0.97476 11.5772,1.39965 25.6036,3.09523 26.4834,6.4144 18.7153,7.2522 30.7024,48.44993 75.0813,34.22748 15.0162,15.69509 21.0248,4.74182"
     id="Ordino"
     style="font-style:normal;font-weight:400;font-size:41.6667px;font-family:Ubuntu;fill:#f0ba17;fill-opacity:1;stroke:#232323;stroke-width:3.07011;stroke-linecap:square;stroke-linejoin:bevel;stroke-opacity:1" />
  <path
     fill-rule="evenodd"
     vector-effect="none"
     d="m 1344.8151,1434.7227 -20.225,6.5783 -22.1145,-5.6186 -22.7943,-16.8458 -19.4952,-8.088 -17.2257,-8.5178 -5.3886,-18.9353 2.5793,-26.5234 12.3969,-27.2632 16.8458,-14.5164 25.9536,-4.6589 24.5639,-21.0647 17.3057,-15.906 17.3056,-2.3395 51.9271,0.9398 27.6031,1.8695 27.9631,-5.2487 -10.6574,27.2233 -20.8248,10.7673 -21.7446,18.0155 -8.4279,21.2647 -15.4261,25.2937 -14.0365,23.8541 -9.3577,16.3659 -16.7258,23.3542"
     id="Lavella"
     style="font-style:normal;font-weight:400;font-size:41.6667px;font-family:Ubuntu;fill:#f0ba17;fill-opacity:1;stroke:#232323;stroke-width:3.07011;stroke-linecap:square;stroke-linejoin:bevel;stroke-opacity:1" />
  <path
     fill-rule="evenodd"
     vector-effect="none"
     d="m 1344.8151,1434.7227 16.7258,-23.3542 9.3577,-16.3659 14.0365,-23.8541 15.4261,-25.2937 8.4279,-21.2647 21.7446,-18.0155 20.8248,-10.7673 10.6574,-27.2233 26.7633,7.1183 25.7336,1.4096 11.3372,24.324 12.5169,21.9845 15.4261,8.8778 22.9343,9.3576 27.8231,9.5977 23.1642,0.6898 17.7756,-0.9298 20.5848,-0.6998 17.3057,4.4489 18.9353,9.8175 30.1825,2.3395 32.7418,-0.9298 23.3942,1.4096 16.8358,10.2875 14.9663,9.8075 26.4334,13.1068 17.0758,10.2874 12.2969,12.6968 15.0662,14.1965 22.2145,16.9858 0.5299,3.6891 -3.5591,1.2396 6.6783,20.455 -26.8933,23.5941 -22.2045,1.0697 -18.9053,-3.5491 -21.2547,8.3579 -4.1389,0.12 -0.25,-0.03 -17.8555,-2.0495 -8.8278,3.1792 -0.7798,1.9495 -0.26,0.6499 -10.8973,8.8178 -6.6083,-1.9396 -10.5774,-3.0892 -7.0182,-2.0495 -2.4494,-0.7198 -53.1568,2.8993 -20.4449,0.03 -2.5893,-0.9598 -10.7274,-3.939 -12.107,-4.4589 -5.6086,-2.0595 -44.2689,23.8641 -15.0963,19.3552 -2.0395,6.5683 -2.0395,6.5784 -4.7188,15.2462 -19.0552,-6.2385 -1.3697,-0.4499 -1.3497,-0.4398 -9.3976,-6.2485 -25.0638,-23.1642 -3.4491,0.1699 -5.6486,0.28 -1.0897,-0.7298 -7.5681,-19.7051 -17.8456,-15.3662 9.1177,-17.5356 0.08,-23.6342 -23.6241,-3.5791 -28.183,-3.0392 -24.9138,-7.7081 -18.3654,-6.4384 -24.6639,2.2195 -24.3239,0.4498 -13.9265,-11.707"
     id="EE"
     style="font-style:normal;font-weight:400;font-size:41.6667px;font-family:Ubuntu;fill:#f0ba17;fill-opacity:1;stroke:#232323;stroke-width:3.07011;stroke-linecap:square;stroke-linejoin:bevel;stroke-opacity:1" />
  <path
     fill-rule="evenodd"
     vector-effect="none"
     d="m 1532.5983,1182.3255 30.9523,1.6296 30.3924,-0.3699 27.2632,3.3092 17.5357,2.5194 17.1457,5.0687 25.5136,2.3394 22.7844,-0.3899 18.3154,-5.8585 32.132,-5.6286 18.5054,-4.089 18.3054,-2.7393 19.4752,-4.089 19.0952,-1.1797 26.4934,0.3999 36.231,3.5091 33.7916,-1.6496 28.9228,-7.898 30.3824,-3.5791 21.6246,-6.7483 21.8146,7.4181 24.7438,13.0468 15.5761,17.5356 -0.3299,30.7024 26.0435,15.6561 18.3055,7.778 18.3154,10.1375 19.6651,14.0265 15.5362,16.9858 0.06,1.7795 -0.2599,0.3299 0.3199,1.3397 0.21,6.1685 -0.1,0.7798 1.3597,35.6511 -12.4769,31.8121 0.4299,0.2799 1.8595,1.2197 -2.6793,2.2794 -4.109,3.4892 -35.4312,30.1225 -0.3099,0.2499 -31.8321,10.2375 -51.4872,-20.405 -48.9878,-2.8493 -4.029,-4.0789 -16.2359,-16.406 -14.4464,-14.6163 -31.5722,43.1092 -3.889,54.1066 -22.2145,-16.9858 -15.0662,-14.1965 -12.2969,-12.6968 -17.0758,-10.2874 -26.4334,-13.1068 -14.9663,-9.8075 -16.8358,-10.2875 -23.3942,-1.4096 -32.7418,0.9298 -30.1825,-2.3395 -18.9353,-9.8175 -17.3057,-4.4489 -20.5848,0.6998 -17.7756,0.9298 -23.1642,-0.6898 -27.8231,-9.5977 -22.9343,-9.3576 -15.4261,-8.8778 -12.5169,-21.9845 -11.3372,-24.324 -25.7336,-1.4096 -26.7633,-7.1183 4.7788,-27.5031 16.3659,-14.0165 12.6369,-13.1068 15.906,-16.3659 20.8948,-15.2662"
     id="Encamp"
     style="font-style:normal;font-weight:400;font-size:41.6667px;font-family:Ubuntu;fill:#f0ba17;fill-opacity:1;stroke:#232323;stroke-width:3.07011;stroke-linecap:square;stroke-linejoin:bevel;stroke-opacity:1" />
  <path
     fill-rule="evenodd"
     vector-effect="none"
     d="m 2167.1303,1290.1687 -15.5362,-16.9858 -19.6651,-14.0265 -18.3154,-10.1375 -18.3055,-7.778 -26.0435,-15.6561 0.3299,-30.7024 -15.5761,-17.5356 -24.7438,-13.0468 -21.8146,-7.4181 -21.6246,6.7483 -30.3824,3.5791 -28.9228,7.898 -33.7916,1.6496 -36.231,-3.5091 -26.4934,-0.3999 -19.0952,1.1797 -19.4752,4.089 -18.3054,2.7393 -18.5054,4.089 -32.132,5.6286 -18.3154,5.8585 -22.7844,0.3899 -25.5136,-2.3394 -17.1457,-5.0687 -17.5357,-2.5194 -27.2632,-3.3092 -30.3924,0.3699 -30.9523,-1.6296 18.2754,-24.6938 5.8286,-22.5644 -9.0178,-23.6141 -13.5466,-24.024 -3.4391,-24.294 2.3794,-17.2657 19.985,-15.6461 14.5264,-20.135 14.7763,-21.28567 7.6081,-20.086 22.7443,-5.48663 27.8831,-24.41692 25.3437,-8.81781 21.6346,-16.32693 14.6064,-12.19796 2.5793,-22.39242 28.5329,-8.4599 65.3437,-5.98151 39.5002,-1.00675 20.035,1.28568 22.5744,5.06274 19.4951,18.30244 24.9938,11.14123 40.8998,-3.70308 32.5219,-10.69134 31.9421,-7.37516 92.347,28.95079 4.9987,2.93627 34.5514,11.2182 40.9498,-3.68808 18.8653,-0.72782 0.6498,3.02825 0.6499,3.02925 -42.3395,46.9483 2.8793,41.35073 31.1223,7.768 3.0392,0.7598 3.0892,0.7499 109.0529,26.2834 57.3657,-5.1087 23.6141,25.8236 -39.5901,6.9182 -6.6984,1.1697 -15.2962,2.6794 -55.2462,8.8078 -40.8898,9.2977 -27.0433,12.5168 -13.7965,59.1753 -5.1588,22.0745 -5.5186,24.034 -18.3854,34.9513 -14.5364,36.211 -2.1494,5.3587"
     id="Canillo"
     style="font-style:normal;font-weight:400;font-size:41.6667px;font-family:Ubuntu;fill:#f0ba17;fill-opacity:1;stroke:#232323;stroke-width:3.07011;stroke-linecap:square;stroke-linejoin:bevel;stroke-opacity:1" />
  <path
     fill-rule="evenodd"
     vector-effect="none"
     d=""
     id="path34"
     style="font-style:normal;font-weight:400;font-size:41.6667px;font-family:Ubuntu;fill:#f0ba17;fill-opacity:1;stroke:#232323;stroke-width:3.07011;stroke-linecap:square;stroke-linejoin:bevel;stroke-opacity:1" />
  <path
     fill-rule="evenodd"
     vector-effect="none"
     d=""
     id="path35"
     style="font-style:normal;font-weight:400;font-size:41.6667px;font-family:Ubuntu;fill:#f0ba17;fill-opacity:1;stroke:#232323;stroke-width:3.07011;stroke-linecap:square;stroke-linejoin:bevel;stroke-opacity:1" />
  <path
     fill-rule="evenodd"
     vector-effect="none"
     d=""
     id="path36"
     style="font-style:normal;font-weight:400;font-size:41.6667px;font-family:Ubuntu;fill:#f0ba17;fill-opacity:1;stroke:#232323;stroke-width:3.07011;stroke-linecap:square;stroke-linejoin:bevel;stroke-opacity:1" />
  <path
     fill-rule="evenodd"
     vector-effect="none"
     d=""
     id="path37"
     style="font-style:normal;font-weight:400;font-size:41.6667px;font-family:Ubuntu;fill:#f0ba17;fill-opacity:1;stroke:#232323;stroke-width:3.07011;stroke-linecap:square;stroke-linejoin:bevel;stroke-opacity:1" />
  <path
     fill-rule="evenodd"
     vector-effect="none"
     d=""
     id="path38"
     style="font-style:normal;font-weight:400;font-size:41.6667px;font-family:Ubuntu;fill:#f0ba17;fill-opacity:1;stroke:#232323;stroke-width:3.07011;stroke-linecap:square;stroke-linejoin:bevel;stroke-opacity:1" />
  <path
     fill-rule="evenodd"
     vector-effect="none"
     d=""
     id="path39"
     style="font-style:normal;font-weight:400;font-size:41.6667px;font-family:Ubuntu;fill:#f0ba17;fill-opacity:1;stroke:#232323;stroke-width:3.07011;stroke-linecap:square;stroke-linejoin:bevel;stroke-opacity:1" />
  <path
     fill-rule="evenodd"
     vector-effect="none"
     d=""
     id="path40"
     style="font-style:normal;font-weight:400;font-size:41.6667px;font-family:Ubuntu;fill:#f0ba17;fill-opacity:1;stroke:#232323;stroke-width:3.07011;stroke-linecap:square;stroke-linejoin:bevel;stroke-opacity:1" />
  <path
     fill-rule="evenodd"
     vector-effect="none"
     d=""
     id="path41"
     style="font-style:normal;font-weight:400;font-size:41.6667px;font-family:Ubuntu;fill:#f0ba17;fill-opacity:1;stroke:#232323;stroke-width:3.07011;stroke-linecap:square;stroke-linejoin:bevel;stroke-opacity:1" />
  <metadata
     id="metadata50">
    <rdf:RDF>
      <rdf:Description
         dc:format="image/svg+xml"
         dc:title=""
         dc:description=""
         dc:date="2026-06-16T17:33:44"
         dc:identifier="">
        <dc:creator>
          <rdf:Bag>
            <rdf:li>Zangigga</rdf:li>
          </rdf:Bag>
        </dc:creator>
        <dc:publisher>
          <rdf:Bag>
            <rdf:li>QGIS 3.44.7-Solothurn</rdf:li>
          </rdf:Bag>
        </dc:publisher>
        <dc:subject>
          <rdf:Bag />
        </dc:subject>
      </rdf:Description>
      <cc:Work
         rdf:about="">
        <dc:format>image/svg+xml</dc:format>
        <dc:title />
        <dc:date>2026-06-16T17:33:44</dc:date>
        <dc:identifier />
        <dc:description />
        <dc:creator>
          <cc:Agent>
            <dc:title>Zangigga</dc:title>
          </cc:Agent>
        </dc:creator>
        <dc:publisher>
          <cc:Agent>
            <dc:title>QGIS 3.44.7-Solothurn</dc:title>
          </cc:Agent>
        </dc:publisher>
      </cc:Work>
    </rdf:RDF>
  </metadata>
</svg>
