<?xml version="1.0" encoding="UTF-8" standalone="no"?>
<svg
   height="209.973mm"
   width="296.926mm"
   viewBox="0 0 3507 2480"
   version="1.2"
   id="svg37"
   sodipodi:docname="districtsbar.svg"
   inkscape:version="1.4.4 (dcaf3e7d9e, 2026-05-05)"
   xmlns:inkscape="http://www.inkscape.org/namespaces/inkscape"
   xmlns:sodipodi="http://sodipodi.sourceforge.net/DTD/sodipodi-0.dtd"
   xmlns="http://www.w3.org/2000/svg"
   xmlns:svg="http://www.w3.org/2000/svg"
   xmlns:rdf="http://www.w3.org/1999/02/22-rdf-syntax-ns#"
   xmlns:cc="http://creativecommons.org/ns#"
   xmlns:dc="http://purl.org/dc/elements/1.1/">
  <sodipodi:namedview
     id="namedview37"
     pagecolor="#ffffff"
     bordercolor="#999999"
     borderopacity="1"
     inkscape:showpageshadow="2"
     inkscape:pageopacity="0"
     inkscape:pagecheckerboard="0"
     inkscape:deskcolor="#d1d1d1"
     inkscape:document-units="mm"
     inkscape:zoom="1.0156266"
     inkscape:cx="561.2299"
     inkscape:cy="396.79938"
     inkscape:window-width="1920"
     inkscape:window-height="1008"
     inkscape:window-x="0"
     inkscape:window-y="0"
     inkscape:window-maximized="1"
     inkscape:current-layer="svg37" />
  <defs
     id="defs1" />
  <rect
     x="0"
     height="2479.3826"
     width="3507.1265"
     y="0"
     id="rect14"
     style="font-style:normal;font-weight:400;font-size:41.6667px;font-family:Ubuntu;fill:#000000;fill-opacity:0;fill-rule:evenodd;stroke:none;stroke-width:0.999751;stroke-linecap:square;stroke-linejoin:bevel" />
  <path
     fill-rule="evenodd"
     vector-effect="none"
     d="m 1919.4319,1544.7053 -28.053,67.2432 -36.3909,17.0958 -49.8976,23.7141 -39.3302,18.9752 -38.7803,18.8853 -32.7219,15.7461 -39.6901,19.7851 -35.7511,17.5356 -46.7783,23.4542 -0.09,0.04 -11.7571,-49.8076 -8.8278,-37.0508 -9.8275,-40.27 -9.2877,-40.01 -9.5576,-39.2002 -8.9078,-36.6909 -8.9178,-38.2105 -7.898,-34.1815 -7.8281,-28.6228 4.9388,-1.9296 101.9446,-38.5904 58.1955,-21.3646 0.3699,-0.14 13.0168,-11.3272 39.2402,-38.4004 21.0048,-20.6149 28.043,38.2505 39.8201,51.2072 36.2509,48.9678 40.5899,52.9369 46.8783,62.5744"
     id="Stgeorge"
     style="font-style:normal;font-weight:400;font-size:41.6667px;font-family:Ubuntu;fill:#e5d141;fill-opacity:1;stroke:#232323;stroke-width:3.07011;stroke-linecap:square;stroke-linejoin:bevel;stroke-opacity:1" />
  <path
     fill-rule="evenodd"
     vector-effect="none"
     d="m 1514.1529,622.76689 -394.0019,138.95139 -0.4299,-5.80755 -3.0292,-9.82655 -1.1397,-5.89553 -2.6494,-9.33468 -5.9285,-11.54512 -4.169,-5.89553 -1.0097,-9.21171 -0.12,-11.42315 -0.13,-10.93028 2.0195,-7.61511 2.3994,-4.7898 0.6299,-11.54513 -0.5099,-6.87828 -0.8798,-5.52663 -0.7598,-10.93028 -2.1394,-13.14172 -0.3799,-10.31643 -2.0195,-8.96577 -0.6299,-5.03475 0.6299,-11.05324 -2.2695,-6.50938 0.7498,-4.4209 3.6591,-9.70158 1.1397,-3.07024 6.9383,-4.29893 8.5879,-10.19246 10.8473,-15.35118 2.9092,-4.54387 3.3992,-3.31617 1.7696,-5.52662 3.5391,-3.68409 6.5583,-5.77156 7.5682,-6.75432 2.5293,-4.54386 0.8798,-4.29793 5.0488,-4.29793 3.909,-6.50838 2.3994,-4.54387 0.7598,-4.05299 0.8798,-3.56111 2.2794,-4.29793 4.4089,-5.52563 6.4384,-3.07023 5.2987,-3.19321 4.039,-4.66584 6.3084,-1.96551 4.4189,1.2287 4.2889,1.35066 2.3994,-3.68408 5.1787,-5.77156 4.5389,-3.19321 3.1592,-0.61384 6.1785,2.08748 3.4091,-1.84155 2.6494,-3.80705 3.919,-1.35066 7.0583,-0.24594 8.5878,-2.8243 2.6494,-3.92902 2.1694,-0.077 3.7791,-1.65959 1.2896,-3.21919 1.5497,-1.6096 4.5788,-2.14347 3.4792,1.57161 2.8293,3.2222 2.4193,1.25768 2.5794,-0.31492 2.2694,-1.25669 1.9396,-1.02174 2.7393,-0.31492 h 5.2487 l 2.6693,-0.54987 2.0995,-1.10072 2.0995,-1.96451 2.2594,-1.25769 2.0995,-0.078 2.8293,0.70682 2.4194,-0.86378 2.8293,0.47088 2.9092,2.35842 2.0995,2.27843 3.3892,1.02174 3.2392,1.49363 1.5296,1.33567 3.7191,1.25769 3.869,1.1787 4.6088,1.02175 3.7991,0.94276 2.4194,1.80755 0.9698,2.98726 1.5296,1.57161 2.1894,1.57161 0.3199,2.27943 0.8898,2.35741 4.119,1.02175 3.0692,1.41464 3.6291,1.96451 4.8488,3.2222 2.4994,2.4364 2.0195,2.27943 5.9785,2.43639 4.4489,-0.3929 4.039,1.02174 1.9295,4.08699 1.9395,4.008 2.9893,2.20045 3.7191,2.04349 6.7783,4.55787 2.9092,3.6161 2.8293,2.12147 3.0693,2.12247 1.7795,2.12147 -0.6498,1.88653 -2.0995,0.31492 -0.5598,2.27843 1.8495,3.77306 2.8293,1.49263 2.5094,1.02175 3.4691,2.04349 4.5989,2.90827 2.5093,3.2222 2.0195,3.06524 3.1492,2.67233 1.8596,1.57161 2.8193,0.62885 1.6196,1.02174 0.7298,2.75132 1.5296,2.04349 4.119,2.27943 2.0195,2.67233 2.4294,2.51438 3.869,3.45814 3.4792,2.43739 4.4388,5.02975 2.9093,3.6151 2.5794,3.30117 3.7191,-0.15696 1.3696,3.2222 1.2197,2.04349 5.1687,0.78581 2.8193,0.31492 3.5591,1.25768 7.5082,2.90828 5.3286,1.41465 4.6889,2.27943 2.3394,2.20045 1.8595,1.80755 4.9288,4.32292 3.3092,3.77306 2.5893,3.77306 0.9698,4.00801 -2.0995,2.67233 -2.9892,1.57161 -2.3495,2.59435 -1.5296,4.47989 -0.4899,2.43639 1.0498,2.04349 1.8595,0.86479 2.0995,-1.72857 2.1794,-0.55087 3.0693,1.02175 4.4489,1.72957 1.9395,2.75131 0.16,2.8293 -0.7299,2.59335 0.7299,1.80855 2.3394,1.33567 2.2594,1.49363 2.0195,1.96551 0.6498,2.27943 -2.6693,2.20045 -1.6096,2.51538 -1.1297,2.67233 -4.8488,1.02175 -6.0585,0.31392 -2.8293,1.33666 -1.8595,2.35842 -0.03,0.86378"
     id="Stlucy"
     style="font-style:normal;font-weight:400;font-size:41.6667px;font-family:Ubuntu;fill:#e5d141;fill-opacity:1;stroke:#232323;stroke-width:3.07011;stroke-linecap:square;stroke-linejoin:bevel;stroke-opacity:1" />
  <path
     fill-rule="evenodd"
     vector-effect="none"
     d="m 1716.4325,985.56453 -44.4889,29.30267 -39.9201,27.1133 -35.3212,23.4841 -20.3849,27.2532 -19.965,27.5432 -25.0538,34.6214 -0.3299,-0.18 -53.5867,-28.2929 -43.3592,-23.3442 -33.6416,-16.8358 -14.5464,-117.4138 -0.01,-0.099 22.2845,-97.12181 13.4067,-59.30523 35.2912,-50.09152 43.3892,-60.83685 38.2004,-53.14477 2.5194,1.59061 2.2695,1.33567 2.0194,3.22319 2.0995,4.47989 1.0498,4.48088 -0.5699,4.79481 0.6498,3.30117 3.0693,3.30118 3.789,5.34567 2.0995,5.03075 2.0195,4.63784 2.2694,2.8293 2.5794,2.59435 1.8595,2.67234 2.2595,3.06523 1.1297,3.69508 0.4099,5.50263 -0.7298,5.81655 -1.0498,2.27944 0.8098,3.85204 0.4799,3.38015 0.08,2.35842 -0.4799,6.68133 1.6096,3.69408 0.8098,4.71683 1.1297,4.63784 2.2595,5.26669 2.7493,6.8393 2.5094,5.50263 5.7285,9.98351 2.2595,3.85204 2.1894,5.26669 2.0995,4.4019 3.7891,5.34567 2.0195,3.53812 1.8595,3.77306 6.4584,7.07524 3.959,7.46814 2.6693,8.09698 8.158,15.33018 3.5491,6.8393 2.5894,4.08798 5.1687,12.34193 6.2184,10.14147 4.5189,6.99726 0.8098,2.51537 -0.5599,4.48189 4.029,2.90827 3.3992,2.28043 5.6486,8.25395 3.7191,5.66059 2.6593,2.59435 3.879,4.48189 4.4489,6.13147 5.4087,5.26769 3.6291,3.77406 2.7493,4.009 2.8293,4.16696 2.7493,3.53812 2.8193,3.45914 2.5094,3.2232 2.0995,5.11072 2.7393,6.91828 2.5093,3.85304 4.4389,4.009 3.3992,4.63885 5.0787,8.49088 2.1095,6.13547"
     id="Standrew"
     style="font-style:normal;font-weight:400;font-size:41.6667px;font-family:Ubuntu;fill:#e5d141;fill-opacity:1;stroke:#232323;stroke-width:3.07011;stroke-linecap:square;stroke-linejoin:bevel;stroke-opacity:1" />
  <path
     fill-rule="evenodd"
     vector-effect="none"
     d="m 1120.151,761.71828 394.0019,-138.95139 -0.13,2.98726 1.5396,3.2232 3.1492,2.67233 3.7091,1.57161 2.8293,0.70782 3.8791,1.17871 3.2291,1.49363 2.3395,1.88653 1.8595,5.26669 1.3697,4.16596 0.4698,0.29592 -38.2004,53.14477 -43.3892,60.83685 -35.2912,50.09152 -13.4067,59.30523 -22.2845,97.12181 0.01,0.099 -25.9035,7.04925 -84.5789,23.48215 -83.5792,24.11797 -50.2775,14.7063 -0.2,-0.3399 -2.0195,-4.6688 3.0293,-7.3782 0.8898,-4.9088 -0.6399,-5.8985 -1.0097,-5.8985 0.13,-8.228 1.3896,-6.51232 0.4999,-9.09074 -2.1395,-5.40565 -4.7988,-7.98501 -3.6591,-7.2472 -0.7598,-7.00225 -2.0195,-5.89654 0.5099,-5.03674 2.8993,-5.15972 2.0195,-9.09073 -2.0195,-7.86104 -2.3994,-6.63435 1.0097,-3.43914 2.5294,-7.98502 1.5096,-7.12422 -2.3994,-5.15972 -2.2694,-8.72082 -0.4999,-4.54587 1.2597,-13.51164 1.2597,-9.2127 1.1397,-8.47589 2.3994,-5.40466 1.6396,-6.87828 0.6298,-6.14247 -0.13,-10.4404 -0.2499,-8.35292 -2.6493,-4.54487 -3.2792,-5.52662 -3.2792,-8.96677 -2.0195,-8.10698 -4.2989,-11.54612 -3.1492,-9.45765 -0.2,-2.66734"
     id="Stpeter"
     style="font-style:normal;font-weight:400;font-size:41.6667px;font-family:Ubuntu;fill:#e5d141;fill-opacity:1;stroke:#232323;stroke-width:3.07011;stroke-linecap:square;stroke-linejoin:bevel;stroke-opacity:1" />
  <path
     fill-rule="evenodd"
     vector-effect="none"
     d="m 1385.8348,968.8157 14.5464,117.4138 -22.6143,73.8816 -19.4952,19.1052 -66.2435,67.7931 4.3089,58.7954 5.4887,86.5984 7.768,101.1848 -31.4321,12.4969 -97.1059,39.4502 v -5.0288 l -5.1787,-7.4981 -2.7793,-14.2565 -0.8798,-10.3174 -4.0389,-3.5691 -2.8993,-6.0185 -0.13,-7.2482 2.0195,-11.1872 3.0292,-16.226 -0.5098,-9.5776 0.6398,-12.047 1.8895,-5.2887 2.8993,-10.0675 0.13,-12.4169 -3.909,-8.9677 -0.13,-8.358 1.6396,-11.5471 2.1495,-7.3781 -0.38,-7.3682 -2.3994,-6.5184 -2.7793,-6.5084 -0.2499,-6.7583 -0.5099,-6.3884 3.6691,-7.0082 0.3699,-10.6874 -3.0292,-6.5184 -3.6591,-3.0692 -3.909,-11.6771 -0.4999,-6.2584 v -6.2685 l 0.7498,-10.8173 2.1495,-11.0572 2.0195,-8.9678 2.7793,-7.988 -0.13,-6.0185 -5.0487,-8.7278 -5.8086,-5.2787 -5.0487,-9.8276 -0.7499,-8.2379 -3.0292,-9.4577 -4.169,-5.1587 -0.8797,-7.1282 1.0097,-9.4576 3.0293,-8.8478 3.909,-5.0388 2.6493,-7.868 2.7793,-10.4374 1.0098,-10.5674 0.3799,-9.7076 -1.7696,-9.5876 -1.3896,-5.6486 -3.5292,-7.858 -1.1397,-6.1485 -2.3994,-12.6568 -2.1394,-10.4374 -1.0098,-6.8783 0.8798,-4.7888 3.5291,-7.0083 -0.8798,-8.5978 -3.2791,-7.2482 -4.5989,-7.8881 50.2775,-14.7063 83.5792,-24.118 84.5789,-23.48215 25.9035,-7.04925"
     id="Stjames"
     style="font-style:normal;font-weight:400;font-size:41.6667px;font-family:Ubuntu;fill:#e5d141;fill-opacity:1;stroke:#232323;stroke-width:3.07011;stroke-linecap:square;stroke-linejoin:bevel;stroke-opacity:1" />
  <path
     fill-rule="evenodd"
     vector-effect="none"
     d="m 1654.218,1361.251 -58.1955,21.3646 -101.9446,38.5904 -4.9388,1.9296 -83.7891,32.6318 -48.9078,19.2052 -46.8484,18.6154 -7.768,-101.1848 -5.4887,-86.5984 -4.3089,-58.7954 66.2435,-67.7931 19.4952,-19.1052 22.6143,-73.8816 33.6416,16.8358 43.3592,23.3442 53.5867,28.2929 0.3299,0.18 17.7656,9.6576 31.6121,32.7518 36.9408,38.4704 11.6771,11.6271 7.4382,35.5212 17.4856,78.3405"
     id="Stthomas"
     style="font-style:normal;font-weight:400;font-size:41.6667px;font-family:Ubuntu;fill:#e5d141;fill-opacity:1;stroke:#232323;stroke-width:3.07011;stroke-linecap:square;stroke-linejoin:bevel;stroke-opacity:1" />
  <path
     fill-rule="evenodd"
     vector-effect="none"
     d="m 1727.8497,1290.7685 -21.0048,20.6149 -39.2402,38.4004 -13.0168,11.3272 -0.3699,0.14 -17.4856,-78.3405 -7.4382,-35.5212 -11.6771,-11.6271 -36.9408,-38.4704 -31.6121,-32.7518 -17.7656,-9.6576 25.0538,-34.6214 19.965,-27.5432 20.3849,-27.2532 35.3212,-23.4841 39.9201,-27.1133 44.4889,-29.30267 0.16,0.46889 2.4993,4.48188 2.7494,4.16696 2.7393,2.8303 3.2392,6.60734 4.1989,5.2687 3.3092,3.0592 3.0692,4.4089 3.0693,5.0288 5.2487,5.6586 3.3091,2.6793 4.8488,2.8293 4.6889,3.2192 3.3091,2.9093 1.9396,5.2687 1.6895,4.1689 2.4294,3.3792 3.0693,2.9093 3.4691,2.6793 2.5094,3.6891 6.2184,8.018 3.6291,4.4089 5.8186,4.1689 4.5188,2.3595 4.359,4.0889 2.9092,4.009 5.4987,3.4592 10.8173,7.0782 5.3286,2.0395 6.3085,1.5696 4.5988,2.5194 4.4389,3.0692 3.6391,2.0395 5.4087,1.1797 5.3286,-0.1599 2.4294,-1.4097 2.9893,-0.4699 4.039,0.4699 6.8583,5.3487 7.838,4.7188 6.7084,3.1392 4.9987,-0.08 4.7688,0.9498 3.0793,1.1197 -44.7889,43.0593 -49.4877,46.8483 -50.8773,48.9578 -27.5031,26.9933"
     id="Stjoseph"
     style="font-style:normal;font-weight:400;font-size:41.6667px;font-family:Ubuntu;fill:#e5d141;fill-opacity:1;stroke:#232323;stroke-width:3.07011;stroke-linecap:square;stroke-linejoin:bevel;stroke-opacity:1" />
  <path
     fill-rule="evenodd"
     vector-effect="none"
     d="m 1571.9485,1767.1799 0.09,-0.04 46.7783,-23.4542 35.7511,-17.5356 39.6901,-19.7851 32.7219,-15.7461 38.7803,-18.8853 39.3302,-18.9752 49.8976,-23.7141 36.3909,-17.0958 33.7216,43.6691 27.0233,33.4717 24.9038,31.6021 25.0838,31.8621 23.714,29.7126 21.6846,27.7431 20.7649,26.0535 22.6043,29.0028 12.9468,15.5861 -10.1375,7.5481 -10.5773,7.7181 -10.6574,7.0782 -4.1989,4.329 -4.199,6.2884 -5.4186,4.089 -8.6379,6.0585 -6.8683,4.6488 -10.7373,5.5786 -7.998,2.9193 -11.3872,3.6891 -7.2682,0.3199 -9.5376,-0.4699 -9.5276,0.8598 -8.3179,10.6973 -9.6076,12.9068 -5.5787,8.3379 -11.4671,18.3355 -5.8185,7.7081 -5.5687,12.1169 0.24,2.9093 -2.0195,4.9588 -5.3287,4.3289 -3.959,-0.8698 -2.8293,-2.1994 -4.5189,-0.31 -6.4584,3.9291 -5.4986,2.8293 -11.7571,4.9187 -6.2584,2.2695 -6.9783,3.769 -3.769,2.4194 -7.2882,5.2887 -8.278,4.6289 -9.6076,3.929 -7.758,2.1194 -3.8791,0.05 -9.0477,0.1 -5.8885,0.9098 -5.6886,1.7595 -4.8588,2.3695 -6.2085,1.5196 -12.9967,1.2297 -9.2177,-2.0895 -12.7469,-5.0388 -6.5383,-2.6793 -4.289,-5.1787 -5.5286,-6.2984 -2.8993,-3.2192 -2.8393,-4.289 -0.05,-3.669 1.5996,-4.5889 0.1999,-5.7886 -1.9595,-5.8885 -2.8993,-4.129 -6.8183,-7.908 -3.0992,-3.4691 -1.6096,-5.7486 -1.0298,-5.1287 -1.4496,-2.9793 -2.7393,-4.3289 -3.7191,-2.3094 -7.5981,-2.0695 -1.4496,-5.5386 -4.7588,-4.8788 -7.9481,-5.3687 -13.3267,-4.8688 -10.9072,-2.5993 -13.8166,-2.4394 -5.3287,-0.8698 -6.2984,-2.7493 -4.8488,-2.1295 -6.7783,0.08 -7.918,1.9695 -9.4477,1.1797 -8.1579,-0.4699 -4.9288,1.0998 -11.2272,1.4996 -8.5579,2.7493 -7.5981,1.8895 -7.6681,-0.1599 -4.119,-2.5994 -8.1579,-6.2084 -4.8488,-2.5194 -14.8563,-2.5194 -6.7883,-1.4896 -10.8173,-1.7396 -5.3387,-1.8795 -2.5794,-3.7791 -1.6995,-2.5193 -2.5794,-0.4699 -10.4174,-2.5994 h -6.3084 l -7.9081,-1.0997 -2.8293,-3.3092 -5.0087,-4.3989 -3.7191,-2.1295 -10.6573,-1.8095 -10.0175,-1.6496 -5.4087,-4.4089 -1.8595,-3.4591 -8.318,-2.8293 -4.5988,-0.24 -7.0283,1.3397 -5.9785,0.5499 -4.6088,-0.8698 -8.7978,-1.5696 -5.6586,-0.31 -6.7783,0.23 -13.4067,-1.9695 -4.7688,-2.0395 -8.7278,-5.0388 -9.5277,-1.9695 -7.668,-1.0997 -9.8576,-3.5391 -4.9288,-1.7296 -0.8697,-0.3799 53.3267,-27.7931 33.1717,-17.2757 27.5731,-14.2264 30.6924,-15.7561 41.6296,-21.3947 39.5102,-20.1849"
     id="Christchurch"
     style="font-style:normal;font-weight:400;font-size:41.6667px;font-family:Ubuntu;fill:#e5d141;fill-opacity:1;stroke:#232323;stroke-width:3.07011;stroke-linecap:square;stroke-linejoin:bevel;stroke-opacity:1" />
  <path
     fill-rule="evenodd"
     vector-effect="none"
     d="m 1489.1391,1423.1356 7.8281,28.6228 7.898,34.1815 8.9178,38.2105 8.9078,36.6909 9.5576,39.2002 9.2877,40.01 9.8275,40.27 8.8278,37.0508 11.7571,49.8076 -39.5102,20.1849 -41.6296,21.3947 -30.6924,15.7561 -27.5731,14.2264 -33.1717,17.2757 -53.3267,27.7931 -9.7876,-4.3389 -7.2682,-1.8895 -5.6586,0.3899 -4.6788,-0.4699 -3.1492,-2.1195 -0.9698,-3.6991 0.3199,-4.7188 2.8293,-2.2894 2.1795,0.7098 3.799,-2.0395 4.6789,-6.1385 2.1794,-4.8787 1.1297,-6.3685 -0.9697,-7.3981 -0.16,-11.957 0.9698,-7.3982 -1.9395,-8.5779 -1.3697,-3.929 -4.9288,-5.7386 -6.8683,-5.4286 -8.3979,-5.5086 -5.4086,-4.9588 -8.8878,-4.3289 -7.1082,-2.2794 -6.6184,-0.8598 -4.039,0.6998 -5.6586,-0.2299 -6.9382,-2.6794 -3.8791,-2.0395 -2.0195,-4.9587 -6.9482,-5.5886 -12.197,-5.3487 -10.4174,-4.3989 -6.6983,-3.5491 -0.6099,-15.0563 -3.0292,-8.5978 18.5453,-10.5774 3.2792,-7.868 -4.7888,-10.6874 -2.6493,-7.988 -1.1397,-10.8173 -0.7598,-12.167 -2.6494,-12.5369 -6.5584,-12.7868 -8.2079,-9.3376 -5.7986,-7.2482 -9.3476,-8.7279 -4.6689,-14.5063 -2.8993,-5.8986 -1.6395,-10.0775 -2.2695,-11.3072 -6.0585,-10.0774 0.13,-9.9576 1.0097,-5.7685 v -1.9795 l 97.1059,-39.4502 31.4321,-12.4969 46.8484,-18.6154 48.9078,-19.2052 83.7891,-32.6318"
     id="Stmichael"
     style="font-style:normal;font-weight:400;font-size:41.6667px;font-family:Ubuntu;fill:#e5d141;fill-opacity:1;stroke:#232323;stroke-width:3.07011;stroke-linecap:square;stroke-linejoin:bevel;stroke-opacity:1" />
  <path
     fill-rule="evenodd"
     vector-effect="none"
     d="m 2103.826,1880.6516 -12.9468,-15.5861 -22.6043,-29.0028 -20.7649,-26.0535 -21.6846,-27.7431 -23.714,-29.7126 -25.0838,-31.8621 -24.9038,-31.6021 -27.0233,-33.4717 -33.7216,-43.6691 28.053,-67.2432 0.11,-0.25 66.4035,-61.6146 35.6711,-33.8616 47.7881,-43.6891 41.0598,-37.8006 34.3314,-31.6721 38.5804,-34.7314 16.9358,-15.0662 1.8495,4.6288 2.4294,3.5392 4.5189,3.3791 2.3394,2.6794 6.8683,7.708 5.7386,4.319 2.7393,4.3289 3.3092,4.5588 3.0692,4.249 3.3992,0.7898 3.3091,-1.1797 3.2292,-1.1797 2.3394,1.3297 -0.7198,3.5391 -1.5396,1.9695 -2.8293,2.1994 -1.2097,4.169 0.16,2.3594 1.6995,1.6496 3.7991,-1.8096 2.3394,2.8393 1.8596,4.4789 1.2896,6.0585 1.7796,6.7583 2.4994,1.6496 5.7385,-0.08 2.5794,1.6596 6.6283,4.7988 3.0693,3.7691 1.4496,5.2687 2.5094,3.3092 4.119,2.9792 4.1989,-0.3099 1.9395,-2.0495 3.7091,0.16 2.0195,3.3791 4.119,0.7898 2.6693,2.5994 3.5491,1.8895 3.3992,0.15 4.7588,-1.0198 10.0175,-1.5696 9.4477,-1.5796 4.9287,-1.8795 8.318,1.8795 3.6391,5.0388 -1.1298,4.3189 2.9093,2.7593 8.148,-0.3199 4.5289,-0.08 4.0389,2.2094 6.2985,6.9983 1.6196,6.8383 1.4496,5.6686 3.6291,7.3881 2.9093,5.7386 6.7083,1.6596 4.199,-0.3199 4.4389,0.1599 4.3689,4.3989 0.3999,4.8788 -2.5094,4.8788 -0.2399,6.3684 1.9395,6.4484 4.5289,3.3792 3.5491,2.9093 0.3199,9.0477 -2.8993,6.0585 -2.5094,5.2687 -0.1599,5.0387 -2.0995,4.239 0.4799,3.939 -1.2897,8.1779 -1.6996,6.1385 -0.3999,5.5786 -2.7493,5.4287 -0.6398,4.5588 -3.959,1.2597 -3.2292,1.5696 2.0994,3.0693 -3.3091,1.5796 -3.3992,4.009 -0.4799,5.0287 0.6399,5.1987 -3.5492,1.3297 -5.6585,2.4394 -1.6096,2.1295 -0.24,4.7988 1.0498,2.1194 0.7198,3.4592 -3.7891,7.0782 -3.1492,2.5194 -8.158,6.9183 -1.3796,5.1187 -0.3199,8.6478 -0.8898,7.7881 -1.6996,4.9588 -0.6398,4.6388 -2.5094,2.8293 -3.1492,1.0197 -2.1795,4.6489 -3.0692,3.4591 -2.6594,4.089 -0.8897,2.7493 -4.039,1.4997 -3.5591,2.5193 -2.0195,4.009 -2.0195,3.0693 -2.0995,2.4394 -2.6594,4.5588 -2.2694,4.169 -2.3394,2.1994 -3.3092,0.9498 -4.119,2.2794 -3.4691,3.2992 -2.1894,3.3092 -3.6291,3.0692 -2.7494,2.5094 -4.2789,7.7881 -5.6486,12.1169 -4.4489,9.5177 -6.1384,7.3981 -4.9288,5.6586 -0.7198,2.6793 -1.6196,4.5589 -2.4994,5.3487 -3.5591,1.8895 -5.2487,5.5886 -1.6096,5.1087 -2.4294,3.2292 -2.5794,-1.3396 -3.6391,-1.5696 h -2.6593 l -3.5591,2.5893 -6.0585,7.1582 -5.3287,10.6974 -3.4691,7.2382 -1.1397,5.8985 -3.6291,6.2185 -2.9093,7.6281 -4.119,7.868 -5.4886,2.9892 -6.9483,5.6686 -4.4389,3.1493 -2.8293,5.6585 -8.7278,9.1278 -5.6486,3.929 -2.9093,2.4394 -4.2789,1.8095 -7.7581,7.4782 -2.8293,3.929 -6.6983,1.3397 -2.8293,1.3396 -9.6076,4.009 -7.998,5.7486 -6.7883,4.169 -13.9665,9.1977 -13.6566,10.9372 -0.2,0.16"
     id="Stphilip"
     style="font-style:normal;font-weight:400;font-size:41.6667px;font-family:Ubuntu;fill:#e5d141;fill-opacity:1;stroke:#232323;stroke-width:3.07011;stroke-linecap:square;stroke-linejoin:bevel;stroke-opacity:1" />
  <path
     fill-rule="evenodd"
     vector-effect="none"
     d="m 1919.4319,1544.7053 -46.8783,-62.5744 -40.5899,-52.9369 -36.2509,-48.9678 -39.8201,-51.2072 -28.043,-38.2505 27.5031,-26.9933 50.8773,-48.9578 49.4877,-46.8483 44.7889,-43.0593 3.3791,1.2397 6.0585,2.9093 3.4791,3.6891 2.1795,3.3891 7.1882,6.6784 3.7091,5.5086 5.5786,5.0287 2.8293,4.009 5.6486,4.089 3.879,3.6191 2.6594,3.2992 3.2391,1.6496 4.5989,2.2094 4.2789,3.9291 5.0888,3.769 5.3286,3.7791 5.0088,4.6388 4.6888,2.9893 4.199,2.1195 7.5081,2.6793 3.7991,0.8598 6.2984,0.1599 4.8488,-1.8095 2.2594,-2.6693 3.8791,-1.1798 6.2184,1.6496 3.4691,1.6496 4.6889,2.8293 3.1492,4.3289 1.6996,6.1285 1.2896,5.1887 0.5599,7.8681 0.8098,5.8185 2.3394,3.2192 5.2587,2.4394 4.7588,2.4394 3.2292,0.2399 4.119,-1.7295 4.119,-0.6299 5.8985,2.0395 6.7083,2.9893 7.1882,2.1194 4.5189,1.1797 2.6694,3.0693 2.4993,5.2687 3.2292,3.1492 6.4684,3.5391 5.2487,2.4394 3.3092,2.9093 3.3891,4.009 4.7689,4.009 4.5988,5.7385 4.039,5.9786 3.4791,4.3289 4.8388,4.2389 8.158,4.7188 7.0282,2.3595 6.7084,0.2399 8.9677,-2.5994 4.5989,-2.6693 2.0195,-4.4789 1.6996,-3.939 3.3891,-1.5696 6.7084,-1.2597 3.6291,-2.0395 2.0194,-2.9093 4.5189,-0.4798 4.7688,1.6596 2.2595,3.929 2.7493,4.089 0.4099,1.0297 -16.9358,15.0662 -38.5804,34.7314 -34.3314,31.6721 -41.0598,37.8006 -47.7881,43.6891 -35.6711,33.8616 -66.4035,61.6146 -0.11,0.25"
     id="Stjohn"
     style="font-style:normal;font-weight:400;font-size:41.6667px;font-family:Ubuntu;fill:#e5d141;fill-opacity:1;stroke:#232323;stroke-width:3.07011;stroke-linecap:square;stroke-linejoin:bevel;stroke-opacity:1" />
  <metadata
     id="metadata37">
    <rdf:RDF>
      <rdf:Description
         dc:description=""
         dc:format="image/svg+xml"
         dc:date="2026-06-25T18:00:56"
         dc:identifier=""
         dc:title="">
        <dc:creator>
          <rdf:Bag>
            <rdf:li>Zangigga</rdf:li>
          </rdf:Bag>
        </dc:creator>
        <dc:publisher>
          <rdf:Bag>
            <rdf:li>QGIS 3.44.7-Solothurn</rdf:li>
          </rdf:Bag>
        </dc:publisher>
        <dc:subject>
          <rdf:Bag />
        </dc:subject>
      </rdf:Description>
      <cc:Work
         rdf:about="">
        <dc:format>image/svg+xml</dc:format>
        <dc:title />
        <dc:date>2026-06-25T18:00:56</dc:date>
        <dc:identifier />
        <dc:description />
        <dc:creator>
          <cc:Agent>
            <dc:title>Zangigga</dc:title>
          </cc:Agent>
        </dc:creator>
        <dc:publisher>
          <cc:Agent>
            <dc:title>QGIS 3.44.7-Solothurn</dc:title>
          </cc:Agent>
        </dc:publisher>
      </cc:Work>
    </rdf:RDF>
  </metadata>
</svg>
